<svg width="189" height="48" viewBox="0 0 189 48" fill="none" xmlns="http://www.w3.org/2000/svg">
<path d="M9.6 37.52C7.94667 37.52 6.46667 37.16 5.16 36.44C3.88 35.72 2.86667 34.7333 2.12 33.48C1.4 32.2 1.04 30.7733 1.04 29.2C1.04 27.6267 1.4 26.2267 2.12 25C2.86667 23.7467 3.88 22.7733 5.16 22.08C6.46667 21.3867 7.94667 21.04 9.6 21.04C11.2533 21.04 12.72 21.4 14 22.12C15.28 22.8133 16.2667 23.7867 16.96 25.04C17.68 26.2933 18.04 27.7067 18.04 29.28C18.04 30.8533 17.68 32.2667 16.96 33.52C16.24 34.7733 15.24 35.76 13.96 36.48C12.68 37.1733 11.2267 37.52 9.6 37.52ZM10 36.68C11.2267 36.68 12.1467 36.08 12.76 34.88C13.4 33.68 13.72 32 13.72 29.84C13.72 27.1467 13.2933 25.1467 12.44 23.84C11.6133 22.5333 10.56 21.88 9.28 21.88C8.02667 21.88 7.05333 22.5067 6.36 23.76C5.66667 24.9867 5.32 26.6533 5.32 28.76C5.32 31.1333 5.74667 33.0533 6.6 34.52C7.45333 35.96 8.58667 36.68 10 36.68ZM20.7025 37C20.6225 37 20.5825 36.92 20.5825 36.76C20.5825 36.6 20.6225 36.52 20.7025 36.52C21.7425 36.52 22.5025 36.4533 22.9825 36.32C23.4892 36.1867 23.8358 35.9333 24.0225 35.56C24.2092 35.16 24.3025 34.56 24.3025 33.76V26.72C24.3025 25.8667 24.2092 25.2667 24.0225 24.92C23.8625 24.5467 23.5558 24.36 23.1025 24.36C22.6758 24.36 21.8225 24.6133 20.5425 25.12H20.5025C20.4225 25.12 20.3558 25.0533 20.3025 24.92C20.2492 24.7867 20.2758 24.6933 20.3825 24.64L27.6625 21.2C27.6892 21.1733 27.7292 21.16 27.7825 21.16C27.8625 21.16 27.9292 21.2 27.9825 21.28C28.0358 21.3333 28.0625 21.4 28.0625 21.48V33.76C28.0625 34.5867 28.1425 35.1867 28.3025 35.56C28.4625 35.9333 28.7825 36.1867 29.2625 36.32C29.7425 36.4533 30.5025 36.52 31.5425 36.52C31.6225 36.52 31.6625 36.6 31.6625 36.76C31.6625 36.92 31.6225 37 31.5425 37C30.5825 37 29.8358 36.9867 29.3025 36.96L26.1425 36.92L22.9825 36.96C22.4225 36.9867 21.6625 37 20.7025 37Z" fill="#E3E3E8"/>
<path d="M66.184 34.96C66.184 35.472 66.24 35.848 66.352 36.088C66.464 36.312 66.672 36.472 66.976 36.568C67.296 36.664 67.8 36.712 68.488 36.712C68.536 36.712 68.56 36.76 68.56 36.856C68.56 36.952 68.536 37 68.488 37C67.832 37 67.32 36.992 66.952 36.976L64.864 36.952L63.112 36.976C62.792 36.992 62.36 37 61.816 37C61.768 37 61.744 36.952 61.744 36.856C61.744 36.76 61.768 36.712 61.816 36.712C62.328 36.712 62.696 36.672 62.92 36.592C63.16 36.512 63.32 36.36 63.4 36.136C63.48 35.896 63.52 35.536 63.52 35.056V23.944C63.52 23.464 63.48 23.112 63.4 22.888C63.32 22.664 63.16 22.512 62.92 22.432C62.68 22.336 62.312 22.288 61.816 22.288C61.768 22.288 61.744 22.24 61.744 22.144C61.744 22.048 61.768 22 61.816 22L63.088 22.024C63.824 22.056 64.408 22.072 64.84 22.072C65.224 22.072 65.68 22.048 66.208 22C66.416 21.984 66.68 21.968 67 21.952C67.32 21.936 67.688 21.928 68.104 21.928C69.736 21.928 71.024 22.272 71.968 22.96C72.912 23.632 73.384 24.68 73.384 26.104C73.384 27.096 73.128 27.936 72.616 28.624C72.104 29.312 71.44 29.832 70.624 30.184C69.824 30.536 69 30.712 68.152 30.712C67.72 30.712 67.344 30.672 67.024 30.592C66.992 30.592 66.976 30.552 66.976 30.472C66.976 30.424 66.984 30.376 67 30.328C67.032 30.28 67.064 30.264 67.096 30.28C67.336 30.344 67.608 30.376 67.912 30.376C68.648 30.376 69.256 30.032 69.736 29.344C70.232 28.656 70.48 27.68 70.48 26.416C70.48 25.152 70.208 24.176 69.664 23.488C69.136 22.8 68.36 22.456 67.336 22.456C66.888 22.456 66.584 22.56 66.424 22.768C66.264 22.976 66.184 23.384 66.184 23.992V34.96ZM75.2016 37C75.1536 37 75.1296 36.952 75.1296 36.856C75.1296 36.76 75.1536 36.712 75.2016 36.712C75.6976 36.712 76.0336 36.6 76.2096 36.376C76.3856 36.136 76.4736 35.696 76.4736 35.056V30.76C76.4736 30.216 76.4176 29.824 76.3056 29.584C76.1936 29.344 76.0096 29.224 75.7536 29.224C75.5456 29.224 75.2496 29.312 74.8656 29.488H74.8416C74.7776 29.488 74.7296 29.448 74.6976 29.368C74.6656 29.272 74.6736 29.216 74.7216 29.2L78.3456 27.52L78.4176 27.496C78.4976 27.496 78.5776 27.536 78.6576 27.616C78.7376 27.696 78.7776 27.768 78.7776 27.832V28.36C78.7456 29 78.7296 29.784 78.7296 30.712V35.056C78.7296 35.696 78.8176 36.136 78.9936 36.376C79.1856 36.6 79.5296 36.712 80.0256 36.712C80.0736 36.712 80.0976 36.76 80.0976 36.856C80.0976 36.952 80.0736 37 80.0256 37C79.6096 37 79.2816 36.992 79.0416 36.976L77.6016 36.952L76.1856 36.976C75.9456 36.992 75.6176 37 75.2016 37ZM77.5056 25.12C77.0416 25.12 76.6816 24.992 76.4256 24.736C76.1696 24.48 76.0416 24.12 76.0416 23.656C76.0416 23.24 76.1696 22.912 76.4256 22.672C76.6976 22.416 77.0576 22.288 77.5056 22.288C77.9536 22.288 78.2976 22.408 78.5376 22.648C78.7776 22.888 78.8976 23.224 78.8976 23.656C78.8976 24.12 78.7776 24.48 78.5376 24.736C78.2976 24.992 77.9536 25.12 77.5056 25.12ZM86.1863 37.288C85.1303 37.288 84.2343 37.064 83.4983 36.616C82.7783 36.152 82.2343 35.56 81.8663 34.84C81.5143 34.104 81.3383 33.336 81.3383 32.536C81.3383 31.528 81.6183 30.648 82.1783 29.896C82.7383 29.128 83.4503 28.544 84.3143 28.144C85.1943 27.728 86.0903 27.52 87.0023 27.52C87.7703 27.52 88.4583 27.68 89.0663 28C89.6903 28.32 90.0023 28.76 90.0023 29.32C90.0023 29.624 89.8823 29.888 89.6423 30.112C89.4183 30.32 89.0983 30.424 88.6823 30.424C88.2983 30.424 87.9943 30.328 87.7703 30.136C87.5463 29.928 87.3623 29.616 87.2183 29.2C87.0743 28.752 86.9303 28.448 86.7863 28.288C86.6583 28.112 86.4183 28.024 86.0663 28.024C85.3783 28.024 84.8263 28.368 84.4103 29.056C84.0103 29.728 83.8103 30.624 83.8103 31.744C83.8103 33.072 84.1063 34.136 84.6983 34.936C85.2903 35.72 86.2343 36.112 87.5303 36.112C87.9623 36.112 88.3303 36.064 88.6343 35.968C88.9543 35.872 89.3543 35.712 89.8343 35.488H89.8583C89.9063 35.488 89.9463 35.512 89.9783 35.56C90.0263 35.608 90.0343 35.648 90.0023 35.68C89.4103 36.224 88.8183 36.632 88.2263 36.904C87.6343 37.16 86.9543 37.288 86.1863 37.288ZM102.694 36.712C102.742 36.712 102.766 36.76 102.766 36.856C102.766 36.952 102.742 37 102.694 37C102.278 37 101.95 36.992 101.71 36.976L100.27 36.952L98.4216 36.976C98.1496 36.992 97.7816 37 97.3176 37C97.2696 37 97.2456 36.952 97.2456 36.856C97.2456 36.76 97.2696 36.712 97.3176 36.712C97.8936 36.712 98.1816 36.544 98.1816 36.208C98.1816 36.032 98.1176 35.872 97.9896 35.728L95.2536 32.224L94.7976 32.632V35.056C94.7976 35.696 94.8856 36.136 95.0616 36.376C95.2536 36.6 95.5976 36.712 96.0936 36.712C96.1576 36.712 96.1896 36.76 96.1896 36.856C96.1896 36.952 96.1576 37 96.0936 37C95.6776 37 95.3416 36.992 95.0856 36.976L93.6936 36.952L92.2536 36.976C92.0136 36.992 91.6856 37 91.2696 37C91.2376 37 91.2216 36.952 91.2216 36.856C91.2216 36.76 91.2376 36.712 91.2696 36.712C91.7656 36.712 92.1016 36.6 92.2776 36.376C92.4696 36.136 92.5656 35.696 92.5656 35.056V22.864C92.5656 22.304 92.5096 21.904 92.3976 21.664C92.3016 21.424 92.1256 21.304 91.8696 21.304C91.6456 21.304 91.3416 21.392 90.9576 21.568H90.9336C90.8856 21.568 90.8376 21.528 90.7896 21.448C90.7576 21.352 90.7576 21.296 90.7896 21.28L94.2936 19.624L94.4136 19.6C94.4936 19.6 94.5736 19.64 94.6536 19.72C94.7496 19.784 94.7976 19.848 94.7976 19.912V32.08L97.0296 29.92C97.4456 29.536 97.6536 29.144 97.6536 28.744C97.6536 28.536 97.5736 28.368 97.4136 28.24C97.2536 28.096 97.0296 28.024 96.7416 28.024C96.7096 28.024 96.6936 27.976 96.6936 27.88C96.6936 27.784 96.7096 27.736 96.7416 27.736C97.2056 27.736 97.5656 27.744 97.8216 27.76L99.7176 27.784L101.47 27.76C101.694 27.744 102.006 27.736 102.406 27.736C102.454 27.736 102.478 27.784 102.478 27.88C102.478 27.976 102.454 28.024 102.406 28.024C101.718 28.024 100.926 28.2 100.03 28.552C99.1496 28.888 98.3576 29.384 97.6536 30.04L96.7896 30.832L100.078 35.056C100.542 35.632 100.982 36.056 101.398 36.328C101.83 36.584 102.262 36.712 102.694 36.712ZM118.236 35.704C118.3 35.704 118.34 35.744 118.356 35.824C118.388 35.888 118.372 35.936 118.308 35.968L115.836 37.144C115.772 37.176 115.692 37.192 115.596 37.192C115.356 37.192 115.116 37.072 114.876 36.832C114.652 36.592 114.492 36.264 114.396 35.848L113.292 36.448C112.876 36.656 112.444 36.832 111.996 36.976C111.548 37.104 111.148 37.168 110.796 37.168C110.284 37.168 109.876 37.04 109.572 36.784C109.284 36.512 109.14 36.128 109.14 35.632C109.14 35.264 109.228 34.968 109.404 34.744C109.596 34.52 109.86 34.336 110.196 34.192C110.548 34.032 111.1 33.824 111.852 33.568L114.3 32.776V30.88C114.3 29.92 114.204 29.216 114.012 28.768C113.82 28.304 113.508 28.072 113.076 28.072C112.692 28.072 112.388 28.216 112.164 28.504C111.94 28.792 111.804 29.264 111.756 29.92C111.66 30.816 111.188 31.264 110.34 31.264C109.588 31.264 109.212 30.936 109.212 30.28C109.212 29.848 109.484 29.416 110.028 28.984C110.572 28.552 111.228 28.2 111.996 27.928C112.764 27.656 113.436 27.52 114.012 27.52C114.764 27.52 115.372 27.744 115.836 28.192C116.316 28.64 116.556 29.296 116.556 30.16V34.408C116.556 34.872 116.636 35.232 116.796 35.488C116.972 35.744 117.212 35.872 117.516 35.872C117.74 35.872 117.972 35.816 118.212 35.704H118.236ZM114.324 35.464C114.308 35.352 114.3 35.184 114.3 34.96V33.184L112.98 33.664C112.548 33.824 112.236 34 112.044 34.192C111.868 34.384 111.78 34.616 111.78 34.888C111.78 35.224 111.876 35.488 112.068 35.68C112.26 35.872 112.5 35.968 112.788 35.968C113.14 35.968 113.548 35.856 114.012 35.632L114.324 35.464ZM131.682 35.32C131.746 35.32 131.794 35.352 131.826 35.416C131.874 35.48 131.874 35.528 131.826 35.56C131.234 36.152 130.658 36.592 130.098 36.88C129.538 37.152 128.946 37.288 128.322 37.288C127.618 37.288 127.018 37.12 126.522 36.784C126.026 36.448 125.778 35.88 125.778 35.08V29.752C125.778 29.256 125.69 28.912 125.514 28.72C125.338 28.528 125.018 28.432 124.554 28.432C124.538 28.432 124.514 28.408 124.482 28.36C124.466 28.312 124.458 28.264 124.458 28.216C124.458 28.152 124.466 28.104 124.482 28.072C124.498 28.024 124.522 28 124.554 28C125.37 27.968 126.026 27.792 126.522 27.472C127.034 27.152 127.426 26.664 127.698 26.008C127.73 25.944 127.794 25.912 127.89 25.912C128.002 25.912 128.058 25.944 128.058 26.008V27.928C128.986 27.912 130.026 27.84 131.178 27.712C131.21 27.712 131.242 27.776 131.274 27.904C131.322 28.016 131.346 28.144 131.346 28.288C131.346 28.448 131.314 28.608 131.25 28.768C131.202 28.912 131.146 28.976 131.082 28.96C130.042 28.736 129.034 28.616 128.058 28.6V34.288C128.058 34.896 128.21 35.344 128.514 35.632C128.834 35.92 129.25 36.064 129.762 36.064C130.402 36.064 131.026 35.824 131.634 35.344L131.682 35.32ZM137.657 37.312C136.665 37.312 135.793 37.088 135.041 36.64C134.305 36.176 133.737 35.56 133.337 34.792C132.937 34.008 132.737 33.16 132.737 32.248C132.737 31.208 133.001 30.328 133.529 29.608C134.057 28.872 134.729 28.328 135.545 27.976C136.361 27.608 137.201 27.424 138.065 27.424C139.057 27.424 139.921 27.656 140.657 28.12C141.393 28.584 141.953 29.2 142.337 29.968C142.737 30.72 142.937 31.528 142.937 32.392C142.937 33.352 142.697 34.208 142.217 34.96C141.737 35.696 141.089 36.272 140.273 36.688C139.473 37.104 138.601 37.312 137.657 37.312ZM138.377 36.808C139.001 36.808 139.473 36.504 139.793 35.896C140.129 35.272 140.297 34.384 140.297 33.232C140.297 32.112 140.153 31.152 139.865 30.352C139.577 29.552 139.201 28.952 138.737 28.552C138.273 28.136 137.777 27.928 137.249 27.928C135.969 27.928 135.329 29.072 135.329 31.36C135.329 32.432 135.465 33.384 135.737 34.216C136.009 35.032 136.377 35.672 136.841 36.136C137.305 36.584 137.817 36.808 138.377 36.808ZM149.975 37.312C149.191 37.312 148.503 37.224 147.911 37.048V41.656C147.911 42.136 147.959 42.488 148.055 42.712C148.167 42.936 148.367 43.088 148.655 43.168C148.959 43.264 149.423 43.312 150.047 43.312C150.095 43.312 150.119 43.36 150.119 43.456C150.119 43.552 150.095 43.6 150.047 43.6C149.455 43.6 148.991 43.592 148.655 43.576L146.759 43.552L145.343 43.576C145.103 43.592 144.767 43.6 144.335 43.6C144.287 43.6 144.263 43.552 144.263 43.456C144.263 43.36 144.287 43.312 144.335 43.312C144.719 43.312 144.999 43.264 145.175 43.168C145.367 43.088 145.495 42.936 145.559 42.712C145.639 42.488 145.679 42.136 145.679 41.656V30.544C145.679 30.032 145.623 29.664 145.511 29.44C145.399 29.216 145.199 29.104 144.911 29.104C144.655 29.104 144.287 29.216 143.807 29.44H143.759C143.711 29.44 143.671 29.4 143.639 29.32C143.591 29.24 143.583 29.192 143.615 29.176L147.023 27.52C147.055 27.504 147.095 27.496 147.143 27.496C147.303 27.496 147.447 27.632 147.575 27.904C147.719 28.176 147.815 28.544 147.863 29.008C149.031 27.952 150.231 27.424 151.463 27.424C152.135 27.424 152.759 27.6 153.335 27.952C153.927 28.304 154.399 28.816 154.751 29.488C155.103 30.16 155.279 30.944 155.279 31.84C155.279 33.12 155.015 34.176 154.487 35.008C153.959 35.824 153.287 36.416 152.471 36.784C151.671 37.136 150.839 37.312 149.975 37.312ZM149.879 28.768C149.159 28.768 148.503 29.024 147.911 29.536V29.728V35.512C148.263 35.912 148.631 36.216 149.015 36.424C149.399 36.616 149.871 36.712 150.431 36.712C152.047 36.712 152.855 35.336 152.855 32.584C152.855 31.368 152.567 30.432 151.991 29.776C151.431 29.104 150.727 28.768 149.879 28.768ZM156.952 37C156.904 37 156.88 36.952 156.88 36.856C156.88 36.76 156.904 36.712 156.952 36.712C157.448 36.712 157.784 36.6 157.96 36.376C158.136 36.136 158.224 35.696 158.224 35.056V30.76C158.224 30.216 158.168 29.824 158.056 29.584C157.944 29.344 157.76 29.224 157.504 29.224C157.296 29.224 157 29.312 156.616 29.488H156.592C156.528 29.488 156.48 29.448 156.448 29.368C156.416 29.272 156.424 29.216 156.472 29.2L160.096 27.52L160.168 27.496C160.248 27.496 160.328 27.536 160.408 27.616C160.488 27.696 160.528 27.768 160.528 27.832V28.36C160.496 29 160.48 29.784 160.48 30.712V35.056C160.48 35.696 160.568 36.136 160.744 36.376C160.936 36.6 161.28 36.712 161.776 36.712C161.824 36.712 161.848 36.76 161.848 36.856C161.848 36.952 161.824 37 161.776 37C161.36 37 161.032 36.992 160.792 36.976L159.352 36.952L157.936 36.976C157.696 36.992 157.368 37 156.952 37ZM159.256 25.12C158.792 25.12 158.432 24.992 158.176 24.736C157.92 24.48 157.792 24.12 157.792 23.656C157.792 23.24 157.92 22.912 158.176 22.672C158.448 22.416 158.808 22.288 159.256 22.288C159.704 22.288 160.048 22.408 160.288 22.648C160.528 22.888 160.648 23.224 160.648 23.656C160.648 24.12 160.528 24.48 160.288 24.736C160.048 24.992 159.704 25.12 159.256 25.12ZM167.936 37.288C166.88 37.288 165.984 37.064 165.248 36.616C164.528 36.152 163.984 35.56 163.616 34.84C163.264 34.104 163.088 33.336 163.088 32.536C163.088 31.528 163.368 30.648 163.928 29.896C164.488 29.128 165.2 28.544 166.064 28.144C166.944 27.728 167.84 27.52 168.752 27.52C169.52 27.52 170.208 27.68 170.816 28C171.44 28.32 171.752 28.76 171.752 29.32C171.752 29.624 171.632 29.888 171.392 30.112C171.168 30.32 170.848 30.424 170.432 30.424C170.048 30.424 169.744 30.328 169.52 30.136C169.296 29.928 169.112 29.616 168.968 29.2C168.824 28.752 168.68 28.448 168.536 28.288C168.408 28.112 168.168 28.024 167.816 28.024C167.128 28.024 166.576 28.368 166.16 29.056C165.76 29.728 165.56 30.624 165.56 31.744C165.56 33.072 165.856 34.136 166.448 34.936C167.04 35.72 167.984 36.112 169.28 36.112C169.712 36.112 170.08 36.064 170.384 35.968C170.704 35.872 171.104 35.712 171.584 35.488H171.608C171.656 35.488 171.696 35.512 171.728 35.56C171.776 35.608 171.784 35.648 171.752 35.68C171.16 36.224 170.568 36.632 169.976 36.904C169.384 37.16 168.704 37.288 167.936 37.288Z" fill="#F1F1F1"/>
</svg>
