<svg width="236" height="48" viewBox="0 0 236 48" fill="none" xmlns="http://www.w3.org/2000/svg">
<path d="M9.6 37.52C7.94667 37.52 6.46667 37.16 5.16 36.44C3.88 35.72 2.86667 34.7333 2.12 33.48C1.4 32.2 1.04 30.7733 1.04 29.2C1.04 27.6267 1.4 26.2267 2.12 25C2.86667 23.7467 3.88 22.7733 5.16 22.08C6.46667 21.3867 7.94667 21.04 9.6 21.04C11.2533 21.04 12.72 21.4 14 22.12C15.28 22.8133 16.2667 23.7867 16.96 25.04C17.68 26.2933 18.04 27.7067 18.04 29.28C18.04 30.8533 17.68 32.2667 16.96 33.52C16.24 34.7733 15.24 35.76 13.96 36.48C12.68 37.1733 11.2267 37.52 9.6 37.52ZM10 36.68C11.2267 36.68 12.1467 36.08 12.76 34.88C13.4 33.68 13.72 32 13.72 29.84C13.72 27.1467 13.2933 25.1467 12.44 23.84C11.6133 22.5333 10.56 21.88 9.28 21.88C8.02667 21.88 7.05333 22.5067 6.36 23.76C5.66667 24.9867 5.32 26.6533 5.32 28.76C5.32 31.1333 5.74667 33.0533 6.6 34.52C7.45333 35.96 8.58667 36.68 10 36.68ZM20.5425 35.92C22.8625 33.7867 24.5558 32.1867 25.6225 31.12C26.6892 30.0267 27.4358 29.0933 27.8625 28.32C28.3158 27.5467 28.5425 26.76 28.5425 25.96C28.5425 24.9733 28.2892 24.12 27.7825 23.4C27.2758 22.6533 26.5558 22.28 25.6225 22.28C24.6358 22.28 23.8225 22.72 23.1825 23.6C22.5692 24.4533 21.9425 25.7867 21.3025 27.6C21.3025 27.6267 21.2492 27.64 21.1425 27.64C20.9025 27.64 20.7958 27.6 20.8225 27.52L22.5825 20.68C22.5825 20.6267 22.6358 20.6 22.7425 20.6C22.8225 20.6 22.8892 20.6267 22.9425 20.68C23.0225 20.7067 23.0492 20.7333 23.0225 20.76C22.9958 20.8933 22.9825 21.0533 22.9825 21.24C22.9825 21.6933 23.1825 21.92 23.5825 21.92C23.8225 21.92 24.2225 21.8267 24.7825 21.64C25.9292 21.24 26.9825 21.04 27.9425 21.04C29.4092 21.04 30.5558 21.3867 31.3825 22.08C32.2092 22.7733 32.6225 23.6933 32.6225 24.84C32.6225 26.2267 32.0758 27.4933 30.9825 28.64C29.9158 29.76 28.4358 30.9867 26.5425 32.32L24.9425 33.52C24.8625 33.6 24.8358 33.6667 24.8625 33.72C24.9158 33.7733 25.0092 33.8 25.1425 33.8C27.2758 33.8 28.8758 33.76 29.9425 33.68C31.0358 33.6 31.8892 33.4267 32.5025 33.16C33.1425 32.8667 33.5558 32.4133 33.7425 31.8C33.7692 31.72 33.8492 31.68 33.9825 31.68C34.1425 31.68 34.2225 31.72 34.2225 31.8L33.3825 36.56C33.3825 36.6667 33.3425 36.7733 33.2625 36.88C33.2092 36.96 33.1292 37 33.0225 37H20.7825C20.6758 37 20.5825 36.92 20.5025 36.76C20.4492 36.6 20.4225 36.44 20.4225 36.28C20.4225 36.12 20.4625 36 20.5425 35.92Z" fill="#E3E3E8"/>
<path d="M75.448 25.408C75.448 25.44 75.4 25.464 75.304 25.48C75.224 25.496 75.176 25.48 75.16 25.432C74.904 24.504 74.472 23.816 73.864 23.368C73.256 22.92 72.456 22.696 71.464 22.696H70.744C70.264 22.696 69.912 22.8 69.688 23.008C69.464 23.216 69.352 23.536 69.352 23.968V29.152H71.08C72.008 29.152 72.712 28.992 73.192 28.672C73.688 28.336 73.936 27.88 73.936 27.304C73.936 27.272 73.984 27.256 74.08 27.256C74.176 27.256 74.224 27.272 74.224 27.304L74.2 29.488C74.2 30 74.208 30.384 74.224 30.64L74.248 31.912C74.248 31.96 74.2 31.984 74.104 31.984C74.008 31.984 73.96 31.96 73.96 31.912C73.96 31.272 73.704 30.768 73.192 30.4C72.696 30.016 71.984 29.824 71.056 29.824H69.352V34.96C69.352 35.456 69.416 35.824 69.544 36.064C69.672 36.304 69.912 36.472 70.264 36.568C70.616 36.664 71.168 36.712 71.92 36.712C71.952 36.712 71.968 36.76 71.968 36.856C71.968 36.952 71.952 37 71.92 37C71.264 37 70.752 36.992 70.384 36.976L67.936 36.952L66.136 36.976C65.816 36.992 65.376 37 64.816 37C64.768 37 64.744 36.952 64.744 36.856C64.744 36.76 64.768 36.712 64.816 36.712C65.376 36.712 65.784 36.672 66.04 36.592C66.296 36.512 66.464 36.36 66.544 36.136C66.64 35.896 66.688 35.536 66.688 35.056V23.944C66.688 23.464 66.648 23.112 66.568 22.888C66.488 22.664 66.328 22.512 66.088 22.432C65.848 22.336 65.48 22.288 64.984 22.288C64.936 22.288 64.912 22.24 64.912 22.144C64.912 22.048 64.936 22 64.984 22H75.16C75.32 22 75.4 22.072 75.4 22.216L75.448 25.408ZM77.3791 37C77.3471 37 77.3311 36.952 77.3311 36.856C77.3311 36.76 77.3471 36.712 77.3791 36.712C77.8751 36.712 78.2111 36.6 78.3871 36.376C78.5791 36.136 78.6751 35.696 78.6751 35.056L78.6991 22.864C78.6991 22.304 78.6431 21.904 78.5311 21.664C78.4351 21.424 78.2591 21.304 78.0031 21.304C77.7951 21.304 77.4911 21.392 77.0911 21.568H77.0671C77.0191 21.568 76.9711 21.528 76.9231 21.448C76.8911 21.352 76.8911 21.296 76.9231 21.28L80.4511 19.624L80.5471 19.6C80.6271 19.6 80.7151 19.64 80.8111 19.72C80.9071 19.784 80.9551 19.848 80.9551 19.912V35.056C80.9551 35.696 81.0431 36.136 81.2191 36.376C81.3951 36.6 81.7311 36.712 82.2271 36.712C82.2911 36.712 82.3231 36.76 82.3231 36.856C82.3231 36.952 82.2911 37 82.2271 37C81.8271 37 81.5071 36.992 81.2671 36.976L79.8031 36.952L78.3631 36.976C78.1231 36.992 77.7951 37 77.3791 37ZM83.8969 37C83.8489 37 83.8249 36.952 83.8249 36.856C83.8249 36.76 83.8489 36.712 83.8969 36.712C84.3929 36.712 84.7289 36.6 84.9049 36.376C85.0809 36.136 85.1689 35.696 85.1689 35.056V30.76C85.1689 30.216 85.1129 29.824 85.0009 29.584C84.8889 29.344 84.7049 29.224 84.4489 29.224C84.2409 29.224 83.9449 29.312 83.5609 29.488H83.5369C83.4729 29.488 83.4249 29.448 83.3929 29.368C83.3609 29.272 83.3689 29.216 83.4169 29.2L87.0409 27.52L87.1129 27.496C87.1929 27.496 87.2729 27.536 87.3529 27.616C87.4329 27.696 87.4729 27.768 87.4729 27.832V28.36C87.4409 29 87.4249 29.784 87.4249 30.712V35.056C87.4249 35.696 87.5129 36.136 87.6889 36.376C87.8809 36.6 88.2249 36.712 88.7209 36.712C88.7689 36.712 88.7929 36.76 88.7929 36.856C88.7929 36.952 88.7689 37 88.7209 37C88.3049 37 87.9769 36.992 87.7369 36.976L86.2969 36.952L84.8809 36.976C84.6409 36.992 84.3129 37 83.8969 37ZM86.2009 25.12C85.7369 25.12 85.3769 24.992 85.1209 24.736C84.8649 24.48 84.7369 24.12 84.7369 23.656C84.7369 23.24 84.8649 22.912 85.1209 22.672C85.3929 22.416 85.7529 22.288 86.2009 22.288C86.6489 22.288 86.9929 22.408 87.2329 22.648C87.4729 22.888 87.5929 23.224 87.5929 23.656C87.5929 24.12 87.4729 24.48 87.2329 24.736C86.9929 24.992 86.6489 25.12 86.2009 25.12ZM95.5296 37.312C94.7456 37.312 94.0576 37.224 93.4656 37.048V41.656C93.4656 42.136 93.5136 42.488 93.6096 42.712C93.7216 42.936 93.9216 43.088 94.2096 43.168C94.5136 43.264 94.9776 43.312 95.6016 43.312C95.6496 43.312 95.6736 43.36 95.6736 43.456C95.6736 43.552 95.6496 43.6 95.6016 43.6C95.0096 43.6 94.5456 43.592 94.2096 43.576L92.3136 43.552L90.8976 43.576C90.6576 43.592 90.3216 43.6 89.8896 43.6C89.8416 43.6 89.8176 43.552 89.8176 43.456C89.8176 43.36 89.8416 43.312 89.8896 43.312C90.2736 43.312 90.5536 43.264 90.7296 43.168C90.9216 43.088 91.0496 42.936 91.1136 42.712C91.1936 42.488 91.2336 42.136 91.2336 41.656V30.544C91.2336 30.032 91.1776 29.664 91.0656 29.44C90.9536 29.216 90.7536 29.104 90.4656 29.104C90.2096 29.104 89.8416 29.216 89.3616 29.44H89.3136C89.2656 29.44 89.2256 29.4 89.1936 29.32C89.1456 29.24 89.1376 29.192 89.1696 29.176L92.5776 27.52C92.6096 27.504 92.6496 27.496 92.6976 27.496C92.8576 27.496 93.0016 27.632 93.1296 27.904C93.2736 28.176 93.3696 28.544 93.4176 29.008C94.5856 27.952 95.7856 27.424 97.0176 27.424C97.6896 27.424 98.3136 27.6 98.8896 27.952C99.4816 28.304 99.9536 28.816 100.306 29.488C100.658 30.16 100.834 30.944 100.834 31.84C100.834 33.12 100.57 34.176 100.042 35.008C99.5136 35.824 98.8416 36.416 98.0256 36.784C97.2256 37.136 96.3936 37.312 95.5296 37.312ZM95.4336 28.768C94.7136 28.768 94.0576 29.024 93.4656 29.536V29.728V35.512C93.8176 35.912 94.1856 36.216 94.5696 36.424C94.9536 36.616 95.4256 36.712 95.9856 36.712C97.6016 36.712 98.4096 35.336 98.4096 32.584C98.4096 31.368 98.1216 30.432 97.5456 29.776C96.9856 29.104 96.2816 28.768 95.4336 28.768ZM117.779 27.736C117.811 27.736 117.827 27.784 117.827 27.88C117.827 27.976 117.811 28.024 117.779 28.024C117.267 28.024 116.819 28.248 116.435 28.696C116.067 29.128 115.731 29.76 115.427 30.592L112.763 37.672C111.915 39.912 111.099 41.48 110.315 42.376C109.547 43.288 108.691 43.744 107.747 43.744C107.267 43.744 106.899 43.64 106.643 43.432C106.387 43.24 106.259 42.952 106.259 42.568C106.259 42.2 106.371 41.92 106.595 41.728C106.819 41.536 107.091 41.44 107.411 41.44C107.587 41.44 107.731 41.464 107.843 41.512C107.971 41.56 108.123 41.64 108.299 41.752C108.603 41.96 108.891 42.064 109.163 42.064C109.531 42.064 109.859 41.92 110.147 41.632C110.451 41.36 110.763 40.896 111.083 40.24C111.403 39.6 111.787 38.68 112.235 37.48L108.395 29.728C108.043 29.04 107.763 28.584 107.555 28.36C107.363 28.136 107.123 28.024 106.835 28.024C106.787 28.024 106.763 27.976 106.763 27.88C106.763 27.784 106.787 27.736 106.835 27.736C107.283 27.736 107.627 27.744 107.867 27.76L108.875 27.784L110.531 27.76C110.787 27.744 111.131 27.736 111.563 27.736C111.611 27.736 111.635 27.784 111.635 27.88C111.635 27.976 111.611 28.024 111.563 28.024C111.147 28.024 110.843 28.064 110.651 28.144C110.459 28.208 110.363 28.32 110.363 28.48C110.363 28.608 110.411 28.768 110.507 28.96L113.339 34.744L114.779 30.568C114.923 30.152 114.995 29.776 114.995 29.44C114.995 28.992 114.867 28.648 114.611 28.408C114.355 28.152 113.987 28.024 113.507 28.024C113.475 28.024 113.459 27.976 113.459 27.88C113.459 27.784 113.475 27.736 113.507 27.736C113.939 27.736 114.267 27.744 114.491 27.76L115.931 27.784L116.891 27.76C117.083 27.744 117.379 27.736 117.779 27.736ZM123.126 37.312C122.134 37.312 121.262 37.088 120.51 36.64C119.774 36.176 119.206 35.56 118.806 34.792C118.406 34.008 118.206 33.16 118.206 32.248C118.206 31.208 118.47 30.328 118.998 29.608C119.526 28.872 120.198 28.328 121.014 27.976C121.83 27.608 122.67 27.424 123.534 27.424C124.526 27.424 125.39 27.656 126.126 28.12C126.862 28.584 127.422 29.2 127.806 29.968C128.206 30.72 128.406 31.528 128.406 32.392C128.406 33.352 128.166 34.208 127.686 34.96C127.206 35.696 126.558 36.272 125.742 36.688C124.942 37.104 124.07 37.312 123.126 37.312ZM123.846 36.808C124.47 36.808 124.942 36.504 125.262 35.896C125.598 35.272 125.766 34.384 125.766 33.232C125.766 32.112 125.622 31.152 125.334 30.352C125.046 29.552 124.67 28.952 124.206 28.552C123.742 28.136 123.246 27.928 122.718 27.928C121.438 27.928 120.798 29.072 120.798 31.36C120.798 32.432 120.934 33.384 121.206 34.216C121.478 35.032 121.846 35.672 122.31 36.136C122.774 36.584 123.286 36.808 123.846 36.808ZM141.156 35.44C141.204 35.44 141.244 35.48 141.276 35.56C141.324 35.64 141.324 35.688 141.276 35.704L137.964 37.312C137.932 37.328 137.892 37.336 137.844 37.336C137.684 37.336 137.54 37.168 137.412 36.832C137.3 36.48 137.236 36.008 137.22 35.416C136.164 36.664 135.02 37.288 133.788 37.288C132.908 37.288 132.212 37.016 131.7 36.472C131.204 35.912 130.956 35.184 130.956 34.288V30.76C130.956 29.72 130.708 29.2 130.212 29.2C130.036 29.2 129.836 29.256 129.612 29.368H129.588C129.524 29.368 129.476 29.328 129.444 29.248C129.412 29.152 129.42 29.096 129.468 29.08L132.684 27.544L132.804 27.52C132.884 27.52 132.964 27.56 133.044 27.64C133.14 27.704 133.188 27.768 133.188 27.832V33.136C133.188 34.864 133.852 35.728 135.18 35.728C135.532 35.728 135.884 35.656 136.236 35.512C136.604 35.352 136.932 35.136 137.22 34.864V30.76C137.22 29.72 136.972 29.2 136.476 29.2C136.3 29.2 136.092 29.256 135.852 29.368H135.828C135.78 29.368 135.74 29.328 135.708 29.248C135.676 29.152 135.684 29.096 135.732 29.08L138.948 27.544C138.98 27.528 139.02 27.52 139.068 27.52C139.148 27.52 139.228 27.56 139.308 27.64C139.404 27.704 139.452 27.768 139.452 27.832V34.216C139.452 34.76 139.5 35.144 139.596 35.368C139.708 35.592 139.884 35.704 140.124 35.704C140.348 35.704 140.676 35.616 141.108 35.44H141.156ZM148.473 27.496C148.841 27.496 149.193 27.632 149.529 27.904C149.881 28.16 150.057 28.472 150.057 28.84C150.057 29.176 149.953 29.456 149.745 29.68C149.537 29.888 149.265 29.992 148.929 29.992C148.689 29.992 148.489 29.944 148.329 29.848C148.185 29.752 148.033 29.608 147.873 29.416C147.729 29.256 147.601 29.144 147.489 29.08C147.393 29 147.273 28.96 147.129 28.96C146.969 28.96 146.793 29.024 146.601 29.152C146.425 29.264 146.145 29.512 145.761 29.896V35.056C145.761 35.696 145.913 36.136 146.217 36.376C146.521 36.6 147.081 36.712 147.897 36.712C147.961 36.712 147.993 36.76 147.993 36.856C147.993 36.952 147.961 37 147.897 37C147.337 37 146.897 36.992 146.577 36.976L144.633 36.952L143.217 36.976C142.977 36.992 142.649 37 142.233 37C142.185 37 142.161 36.952 142.161 36.856C142.161 36.76 142.185 36.712 142.233 36.712C142.729 36.712 143.065 36.6 143.241 36.376C143.417 36.136 143.505 35.696 143.505 35.056V30.544C143.505 30.048 143.441 29.688 143.313 29.464C143.201 29.224 143.017 29.104 142.761 29.104C142.489 29.104 142.105 29.216 141.609 29.44H141.561C141.513 29.44 141.473 29.4 141.441 29.32C141.425 29.24 141.433 29.192 141.465 29.176L144.801 27.544C144.897 27.512 144.953 27.496 144.969 27.496C145.145 27.496 145.305 27.664 145.449 28C145.609 28.32 145.705 28.76 145.737 29.32C146.393 28.648 146.929 28.176 147.345 27.904C147.777 27.632 148.153 27.496 148.473 27.496ZM161.632 37.288C160.576 37.288 159.68 37.064 158.944 36.616C158.224 36.152 157.68 35.56 157.312 34.84C156.96 34.104 156.784 33.336 156.784 32.536C156.784 31.528 157.064 30.648 157.624 29.896C158.184 29.128 158.896 28.544 159.76 28.144C160.64 27.728 161.536 27.52 162.448 27.52C163.216 27.52 163.904 27.68 164.512 28C165.136 28.32 165.448 28.76 165.448 29.32C165.448 29.624 165.328 29.888 165.088 30.112C164.864 30.32 164.544 30.424 164.128 30.424C163.744 30.424 163.44 30.328 163.216 30.136C162.992 29.928 162.808 29.616 162.664 29.2C162.52 28.752 162.376 28.448 162.232 28.288C162.104 28.112 161.864 28.024 161.512 28.024C160.824 28.024 160.272 28.368 159.856 29.056C159.456 29.728 159.256 30.624 159.256 31.744C159.256 33.072 159.552 34.136 160.144 34.936C160.736 35.72 161.68 36.112 162.976 36.112C163.408 36.112 163.776 36.064 164.08 35.968C164.4 35.872 164.8 35.712 165.28 35.488H165.304C165.352 35.488 165.392 35.512 165.424 35.56C165.472 35.608 165.48 35.648 165.448 35.68C164.856 36.224 164.264 36.632 163.672 36.904C163.08 37.16 162.4 37.288 161.632 37.288ZM176.22 35.704C176.284 35.704 176.324 35.744 176.34 35.824C176.372 35.888 176.356 35.936 176.292 35.968L173.82 37.144C173.756 37.176 173.676 37.192 173.58 37.192C173.34 37.192 173.1 37.072 172.86 36.832C172.636 36.592 172.476 36.264 172.38 35.848L171.276 36.448C170.86 36.656 170.428 36.832 169.98 36.976C169.532 37.104 169.132 37.168 168.78 37.168C168.268 37.168 167.86 37.04 167.556 36.784C167.268 36.512 167.124 36.128 167.124 35.632C167.124 35.264 167.212 34.968 167.388 34.744C167.58 34.52 167.844 34.336 168.18 34.192C168.532 34.032 169.084 33.824 169.836 33.568L172.284 32.776V30.88C172.284 29.92 172.188 29.216 171.996 28.768C171.804 28.304 171.492 28.072 171.06 28.072C170.676 28.072 170.372 28.216 170.148 28.504C169.924 28.792 169.788 29.264 169.74 29.92C169.644 30.816 169.172 31.264 168.324 31.264C167.572 31.264 167.196 30.936 167.196 30.28C167.196 29.848 167.468 29.416 168.012 28.984C168.556 28.552 169.212 28.2 169.98 27.928C170.748 27.656 171.42 27.52 171.996 27.52C172.748 27.52 173.356 27.744 173.82 28.192C174.3 28.64 174.54 29.296 174.54 30.16V34.408C174.54 34.872 174.62 35.232 174.78 35.488C174.956 35.744 175.196 35.872 175.5 35.872C175.724 35.872 175.956 35.816 176.196 35.704H176.22ZM172.308 35.464C172.292 35.352 172.284 35.184 172.284 34.96V33.184L170.964 33.664C170.532 33.824 170.22 34 170.028 34.192C169.852 34.384 169.764 34.616 169.764 34.888C169.764 35.224 169.86 35.488 170.052 35.68C170.244 35.872 170.484 35.968 170.772 35.968C171.124 35.968 171.532 35.856 171.996 35.632L172.308 35.464ZM183.442 27.496C183.81 27.496 184.162 27.632 184.498 27.904C184.85 28.16 185.026 28.472 185.026 28.84C185.026 29.176 184.922 29.456 184.714 29.68C184.506 29.888 184.234 29.992 183.898 29.992C183.658 29.992 183.458 29.944 183.298 29.848C183.154 29.752 183.002 29.608 182.842 29.416C182.698 29.256 182.57 29.144 182.458 29.08C182.362 29 182.242 28.96 182.098 28.96C181.938 28.96 181.762 29.024 181.57 29.152C181.394 29.264 181.114 29.512 180.73 29.896V35.056C180.73 35.696 180.882 36.136 181.186 36.376C181.49 36.6 182.05 36.712 182.866 36.712C182.93 36.712 182.962 36.76 182.962 36.856C182.962 36.952 182.93 37 182.866 37C182.306 37 181.866 36.992 181.546 36.976L179.602 36.952L178.186 36.976C177.946 36.992 177.618 37 177.202 37C177.154 37 177.13 36.952 177.13 36.856C177.13 36.76 177.154 36.712 177.202 36.712C177.698 36.712 178.034 36.6 178.21 36.376C178.386 36.136 178.474 35.696 178.474 35.056V30.544C178.474 30.048 178.41 29.688 178.282 29.464C178.17 29.224 177.986 29.104 177.73 29.104C177.458 29.104 177.074 29.216 176.578 29.44H176.53C176.482 29.44 176.442 29.4 176.41 29.32C176.394 29.24 176.402 29.192 176.434 29.176L179.77 27.544C179.866 27.512 179.922 27.496 179.938 27.496C180.114 27.496 180.274 27.664 180.418 28C180.578 28.32 180.674 28.76 180.706 29.32C181.362 28.648 181.898 28.176 182.314 27.904C182.746 27.632 183.122 27.496 183.442 27.496ZM197.15 35.44C197.198 35.44 197.238 35.48 197.27 35.56C197.318 35.64 197.326 35.688 197.294 35.704L193.982 37.312L193.862 37.336C193.718 37.336 193.582 37.184 193.454 36.88C193.342 36.576 193.27 36.16 193.238 35.632C192.054 36.752 190.846 37.312 189.614 37.312C188.91 37.312 188.27 37.128 187.694 36.76C187.134 36.392 186.686 35.856 186.35 35.152C186.014 34.432 185.846 33.592 185.846 32.632C185.846 31.416 186.126 30.424 186.686 29.656C187.262 28.872 187.966 28.304 188.798 27.952C189.646 27.6 190.494 27.424 191.342 27.424C191.934 27.424 192.558 27.52 193.214 27.712V22.864C193.214 22.304 193.158 21.904 193.046 21.664C192.95 21.424 192.774 21.304 192.518 21.304C192.31 21.304 192.014 21.392 191.63 21.568H191.606C191.542 21.568 191.486 21.528 191.438 21.448C191.406 21.352 191.406 21.296 191.438 21.28L194.966 19.624L195.062 19.6C195.142 19.6 195.23 19.64 195.326 19.72C195.422 19.784 195.47 19.848 195.47 19.912V34.216C195.47 34.76 195.518 35.144 195.614 35.368C195.726 35.592 195.902 35.704 196.142 35.704C196.35 35.704 196.678 35.616 197.126 35.44H197.15ZM190.934 36.16C191.734 36.16 192.494 35.824 193.214 35.152V35.032V29.2C192.926 28.8 192.598 28.512 192.23 28.336C191.878 28.144 191.462 28.048 190.982 28.048C190.118 28.048 189.454 28.352 188.99 28.96C188.542 29.552 188.318 30.52 188.318 31.864C188.318 33.208 188.558 34.264 189.038 35.032C189.518 35.784 190.15 36.16 190.934 36.16Z" fill="#F1F1F1"/>
</svg>
