<svg width="342" height="67" viewBox="0 0 342 67" fill="none" xmlns="http://www.w3.org/2000/svg">
<path d="M9.6 37.52C7.94667 37.52 6.46667 37.16 5.16 36.44C3.88 35.72 2.86667 34.7333 2.12 33.48C1.4 32.2 1.04 30.7733 1.04 29.2C1.04 27.6267 1.4 26.2267 2.12 25C2.86667 23.7467 3.88 22.7733 5.16 22.08C6.46667 21.3867 7.94667 21.04 9.6 21.04C11.2533 21.04 12.72 21.4 14 22.12C15.28 22.8133 16.2667 23.7867 16.96 25.04C17.68 26.2933 18.04 27.7067 18.04 29.28C18.04 30.8533 17.68 32.2667 16.96 33.52C16.24 34.7733 15.24 35.76 13.96 36.48C12.68 37.1733 11.2267 37.52 9.6 37.52ZM10 36.68C11.2267 36.68 12.1467 36.08 12.76 34.88C13.4 33.68 13.72 32 13.72 29.84C13.72 27.1467 13.2933 25.1467 12.44 23.84C11.6133 22.5333 10.56 21.88 9.28 21.88C8.02667 21.88 7.05333 22.5067 6.36 23.76C5.66667 24.9867 5.32 26.6533 5.32 28.76C5.32 31.1333 5.74667 33.0533 6.6 34.52C7.45333 35.96 8.58667 36.68 10 36.68ZM27.9425 31.76C29.8092 32.0533 31.2092 32.7333 32.1425 33.8C33.1025 34.8667 33.5825 36.0933 33.5825 37.48C33.5825 38.7333 33.1292 40.0133 32.2225 41.32C31.3425 42.6267 29.9692 43.8533 28.1025 45C26.2625 46.1733 23.9692 47.1733 21.2225 48C21.1158 48.0267 21.0225 47.9733 20.9425 47.84C20.8892 47.7067 20.9158 47.6133 21.0225 47.56C23.9292 46.3867 26.0225 44.92 27.3025 43.16C28.5825 41.4267 29.2225 39.7067 29.2225 38C29.2225 36.4267 28.8225 35.1733 28.0225 34.24C27.2225 33.28 26.1425 32.8 24.7825 32.8C24.2492 32.8 23.7025 32.88 23.1425 33.04C23.0625 33.0667 22.9958 33 22.9425 32.84C22.8892 32.68 22.9025 32.5867 22.9825 32.56C24.8492 32.08 26.2092 31.36 27.0625 30.4C27.9158 29.4133 28.3425 28.04 28.3425 26.28C28.3425 24.9467 28.1425 23.9333 27.7425 23.24C27.3425 22.52 26.7558 22.16 25.9825 22.16C24.8625 22.16 23.8358 22.5467 22.9025 23.32C21.9958 24.0933 21.2492 25.2133 20.6625 26.68C20.6625 26.7067 20.6092 26.72 20.5025 26.72C20.2625 26.72 20.1558 26.6667 20.1825 26.56L21.6625 20.72C21.7158 20.6667 21.7692 20.64 21.8225 20.64C21.9025 20.64 21.9825 20.6667 22.0625 20.72C22.1425 20.7467 22.1692 20.7733 22.1425 20.8C22.0892 21.0133 22.0625 21.16 22.0625 21.24C22.0625 21.6933 22.2892 21.92 22.7425 21.92C23.0625 21.92 23.5158 21.8133 24.1025 21.6C24.7425 21.4133 25.2892 21.28 25.7425 21.2C26.1958 21.0933 26.7158 21.04 27.3025 21.04C28.9025 21.04 30.1425 21.4933 31.0225 22.4C31.9292 23.28 32.3825 24.3467 32.3825 25.6C32.3825 26.88 31.9825 28.0933 31.1825 29.24C30.4092 30.36 29.3292 31.2 27.9425 31.76Z" fill="#E3E3E8"/>
<path d="M79.992 33.712C80.024 33.712 80.04 33.76 80.04 33.856C80.04 33.952 80.024 34 79.992 34H75.72C75.368 34 74.712 33.344 73.752 32.032C72.792 30.704 71.632 28.856 70.272 26.488C70.144 26.504 69.96 26.512 69.72 26.512C69.096 26.512 68.656 26.504 68.4 26.488V32.056C68.4 32.552 68.44 32.912 68.52 33.136C68.6 33.36 68.752 33.512 68.976 33.592C69.216 33.672 69.592 33.712 70.104 33.712C70.136 33.712 70.152 33.76 70.152 33.856C70.152 33.952 70.136 34 70.104 34C69.576 34 69.16 33.992 68.856 33.976L67.032 33.952L65.28 33.976C64.96 33.992 64.528 34 63.984 34C63.936 34 63.912 33.952 63.912 33.856C63.912 33.76 63.936 33.712 63.984 33.712C64.496 33.712 64.864 33.672 65.088 33.592C65.328 33.512 65.488 33.36 65.568 33.136C65.664 32.896 65.712 32.536 65.712 32.056V20.944C65.712 20.464 65.672 20.112 65.592 19.888C65.512 19.664 65.352 19.512 65.112 19.432C64.872 19.336 64.504 19.288 64.008 19.288C63.976 19.288 63.96 19.24 63.96 19.144C63.96 19.048 63.976 19 64.008 19L65.28 19.024C66.016 19.056 66.6 19.072 67.032 19.072C67.496 19.072 68.008 19.048 68.568 19C68.744 18.984 68.968 18.968 69.24 18.952C69.528 18.936 69.864 18.928 70.248 18.928C71.72 18.928 72.856 19.2 73.656 19.744C74.472 20.272 74.88 21.016 74.88 21.976C74.88 22.712 74.656 23.416 74.208 24.088C73.76 24.76 73.176 25.304 72.456 25.72C73.736 27.736 74.808 29.312 75.672 30.448C76.552 31.584 77.328 32.416 78 32.944C78.688 33.456 79.352 33.712 79.992 33.712ZM68.4 25.792C68.784 25.856 69.248 25.888 69.792 25.888C70.368 25.888 70.824 25.8 71.16 25.624C71.496 25.448 71.736 25.144 71.88 24.712C72.04 24.28 72.12 23.672 72.12 22.888C72.12 21.576 71.928 20.672 71.544 20.176C71.16 19.68 70.608 19.432 69.888 19.432C69.344 19.432 68.96 19.552 68.736 19.792C68.512 20.032 68.4 20.432 68.4 20.992V25.792ZM88.6479 32.416C88.6799 32.416 88.7119 32.448 88.7439 32.512C88.7919 32.576 88.7999 32.624 88.7679 32.656C88.1759 33.232 87.5759 33.648 86.9679 33.904C86.3599 34.16 85.6959 34.288 84.9759 34.288C83.9679 34.288 83.0959 34.08 82.3599 33.664C81.6239 33.232 81.0639 32.664 80.6799 31.96C80.2959 31.24 80.1039 30.472 80.1039 29.656C80.1039 28.728 80.3439 27.872 80.8239 27.088C81.3039 26.288 81.9599 25.664 82.7919 25.216C83.6239 24.752 84.5519 24.52 85.5759 24.52C86.5679 24.52 87.3279 24.736 87.8559 25.168C88.3839 25.584 88.6479 26.16 88.6479 26.896C88.6479 27.36 88.5599 27.592 88.3839 27.592H86.9199L82.5999 27.64C82.5519 27.944 82.5279 28.28 82.5279 28.648C82.5279 30.024 82.8479 31.112 83.4879 31.912C84.1439 32.712 85.0399 33.112 86.1759 33.112C86.5759 33.112 86.9919 33.056 87.4239 32.944C87.8559 32.832 88.2479 32.664 88.5999 32.44L88.6479 32.416ZM84.6879 25C84.2079 25 83.7919 25.192 83.4399 25.576C83.0879 25.96 82.8319 26.488 82.6719 27.16L86.0799 27.088C86.0319 25.696 85.5679 25 84.6879 25ZM100.263 24.736C100.295 24.736 100.311 24.784 100.311 24.88C100.311 24.976 100.295 25.024 100.263 25.024C99.7992 25.024 99.3832 25.2 99.0152 25.552C98.6632 25.904 98.3272 26.448 98.0072 27.184L95.0552 34C95.0392 34.08 94.9512 34.12 94.7912 34.12C94.6632 34.12 94.5752 34.08 94.5272 34L90.8552 26.728C90.5192 26.024 90.2232 25.568 89.9672 25.36C89.7112 25.136 89.3992 25.024 89.0312 25.024C88.9832 25.024 88.9592 24.976 88.9592 24.88C88.9592 24.784 88.9832 24.736 89.0312 24.736C89.3192 24.736 89.5592 24.744 89.7512 24.76L91.3592 24.784L93.2072 24.76C93.4792 24.744 93.8552 24.736 94.3352 24.736C94.3832 24.736 94.4072 24.784 94.4072 24.88C94.4072 24.976 94.3832 25.024 94.3352 25.024C93.4072 25.024 92.9432 25.208 92.9432 25.576C92.9432 25.672 92.9832 25.8 93.0632 25.96L95.7512 31L97.3352 27.16C97.4632 26.824 97.5272 26.536 97.5272 26.296C97.5272 25.896 97.3912 25.584 97.1192 25.36C96.8472 25.136 96.4712 25.024 95.9912 25.024C95.9592 25.024 95.9432 24.976 95.9432 24.88C95.9432 24.784 95.9592 24.736 95.9912 24.736C96.4232 24.736 96.7512 24.744 96.9752 24.76L98.4152 24.784L99.3752 24.76C99.5672 24.744 99.8632 24.736 100.263 24.736ZM109.25 32.416C109.282 32.416 109.314 32.448 109.346 32.512C109.394 32.576 109.402 32.624 109.37 32.656C108.778 33.232 108.178 33.648 107.57 33.904C106.962 34.16 106.298 34.288 105.578 34.288C104.57 34.288 103.698 34.08 102.962 33.664C102.226 33.232 101.666 32.664 101.282 31.96C100.898 31.24 100.706 30.472 100.706 29.656C100.706 28.728 100.946 27.872 101.426 27.088C101.906 26.288 102.562 25.664 103.394 25.216C104.226 24.752 105.154 24.52 106.178 24.52C107.17 24.52 107.93 24.736 108.458 25.168C108.986 25.584 109.25 26.16 109.25 26.896C109.25 27.36 109.162 27.592 108.986 27.592H107.522L103.202 27.64C103.154 27.944 103.13 28.28 103.13 28.648C103.13 30.024 103.45 31.112 104.09 31.912C104.746 32.712 105.642 33.112 106.778 33.112C107.178 33.112 107.594 33.056 108.026 32.944C108.458 32.832 108.85 32.664 109.202 32.44L109.25 32.416ZM105.29 25C104.81 25 104.394 25.192 104.042 25.576C103.69 25.96 103.434 26.488 103.274 27.16L106.682 27.088C106.634 25.696 106.17 25 105.29 25ZM119.978 32.704C120.042 32.704 120.082 32.744 120.098 32.824C120.13 32.888 120.114 32.936 120.05 32.968L117.578 34.144C117.514 34.176 117.434 34.192 117.338 34.192C117.098 34.192 116.858 34.072 116.618 33.832C116.394 33.592 116.234 33.264 116.138 32.848L115.034 33.448C114.618 33.656 114.186 33.832 113.738 33.976C113.29 34.104 112.89 34.168 112.538 34.168C112.026 34.168 111.618 34.04 111.314 33.784C111.026 33.512 110.882 33.128 110.882 32.632C110.882 32.264 110.97 31.968 111.146 31.744C111.338 31.52 111.602 31.336 111.938 31.192C112.29 31.032 112.842 30.824 113.594 30.568L116.042 29.776V27.88C116.042 26.92 115.946 26.216 115.754 25.768C115.562 25.304 115.25 25.072 114.818 25.072C114.434 25.072 114.13 25.216 113.906 25.504C113.682 25.792 113.546 26.264 113.498 26.92C113.402 27.816 112.93 28.264 112.082 28.264C111.33 28.264 110.954 27.936 110.954 27.28C110.954 26.848 111.226 26.416 111.77 25.984C112.314 25.552 112.97 25.2 113.738 24.928C114.506 24.656 115.178 24.52 115.754 24.52C116.506 24.52 117.114 24.744 117.578 25.192C118.058 25.64 118.298 26.296 118.298 27.16V31.408C118.298 31.872 118.378 32.232 118.538 32.488C118.714 32.744 118.954 32.872 119.258 32.872C119.482 32.872 119.714 32.816 119.954 32.704H119.978ZM116.066 32.464C116.05 32.352 116.042 32.184 116.042 31.96V30.184L114.722 30.664C114.29 30.824 113.978 31 113.786 31.192C113.61 31.384 113.522 31.616 113.522 31.888C113.522 32.224 113.618 32.488 113.81 32.68C114.002 32.872 114.242 32.968 114.53 32.968C114.882 32.968 115.29 32.856 115.754 32.632L116.066 32.464ZM120.863 34C120.831 34 120.815 33.952 120.815 33.856C120.815 33.76 120.831 33.712 120.863 33.712C121.359 33.712 121.695 33.6 121.871 33.376C122.063 33.136 122.159 32.696 122.159 32.056L122.183 19.864C122.183 19.304 122.127 18.904 122.015 18.664C121.919 18.424 121.743 18.304 121.487 18.304C121.279 18.304 120.975 18.392 120.575 18.568H120.551C120.503 18.568 120.455 18.528 120.407 18.448C120.375 18.352 120.375 18.296 120.407 18.28L123.935 16.624L124.031 16.6C124.111 16.6 124.199 16.64 124.295 16.72C124.391 16.784 124.439 16.848 124.439 16.912V32.056C124.439 32.696 124.527 33.136 124.703 33.376C124.879 33.6 125.215 33.712 125.711 33.712C125.775 33.712 125.807 33.76 125.807 33.856C125.807 33.952 125.775 34 125.711 34C125.311 34 124.991 33.992 124.751 33.976L123.287 33.952L121.847 33.976C121.607 33.992 121.279 34 120.863 34ZM142.654 24.736C142.686 24.736 142.702 24.784 142.702 24.88C142.702 24.976 142.686 25.024 142.654 25.024C142.142 25.024 141.694 25.248 141.31 25.696C140.942 26.128 140.606 26.76 140.302 27.592L137.638 34.672C136.79 36.912 135.974 38.48 135.19 39.376C134.422 40.288 133.566 40.744 132.622 40.744C132.142 40.744 131.774 40.64 131.518 40.432C131.262 40.24 131.134 39.952 131.134 39.568C131.134 39.2 131.246 38.92 131.47 38.728C131.694 38.536 131.966 38.44 132.286 38.44C132.462 38.44 132.606 38.464 132.718 38.512C132.846 38.56 132.998 38.64 133.174 38.752C133.478 38.96 133.766 39.064 134.038 39.064C134.406 39.064 134.734 38.92 135.022 38.632C135.326 38.36 135.638 37.896 135.958 37.24C136.278 36.6 136.662 35.68 137.11 34.48L133.27 26.728C132.918 26.04 132.638 25.584 132.43 25.36C132.238 25.136 131.998 25.024 131.71 25.024C131.662 25.024 131.638 24.976 131.638 24.88C131.638 24.784 131.662 24.736 131.71 24.736C132.158 24.736 132.502 24.744 132.742 24.76L133.75 24.784L135.406 24.76C135.662 24.744 136.006 24.736 136.438 24.736C136.486 24.736 136.51 24.784 136.51 24.88C136.51 24.976 136.486 25.024 136.438 25.024C136.022 25.024 135.718 25.064 135.526 25.144C135.334 25.208 135.238 25.32 135.238 25.48C135.238 25.608 135.286 25.768 135.382 25.96L138.214 31.744L139.654 27.568C139.798 27.152 139.87 26.776 139.87 26.44C139.87 25.992 139.742 25.648 139.486 25.408C139.23 25.152 138.862 25.024 138.382 25.024C138.35 25.024 138.334 24.976 138.334 24.88C138.334 24.784 138.35 24.736 138.382 24.736C138.814 24.736 139.142 24.744 139.366 24.76L140.806 24.784L141.766 24.76C141.958 24.744 142.254 24.736 142.654 24.736ZM148.001 34.312C147.009 34.312 146.137 34.088 145.385 33.64C144.649 33.176 144.081 32.56 143.681 31.792C143.281 31.008 143.081 30.16 143.081 29.248C143.081 28.208 143.345 27.328 143.873 26.608C144.401 25.872 145.073 25.328 145.889 24.976C146.705 24.608 147.545 24.424 148.409 24.424C149.401 24.424 150.265 24.656 151.001 25.12C151.737 25.584 152.297 26.2 152.681 26.968C153.081 27.72 153.281 28.528 153.281 29.392C153.281 30.352 153.041 31.208 152.561 31.96C152.081 32.696 151.433 33.272 150.617 33.688C149.817 34.104 148.945 34.312 148.001 34.312ZM148.721 33.808C149.345 33.808 149.817 33.504 150.137 32.896C150.473 32.272 150.641 31.384 150.641 30.232C150.641 29.112 150.497 28.152 150.209 27.352C149.921 26.552 149.545 25.952 149.081 25.552C148.617 25.136 148.121 24.928 147.593 24.928C146.313 24.928 145.673 26.072 145.673 28.36C145.673 29.432 145.809 30.384 146.081 31.216C146.353 32.032 146.721 32.672 147.185 33.136C147.649 33.584 148.161 33.808 148.721 33.808ZM166.031 32.44C166.079 32.44 166.119 32.48 166.151 32.56C166.199 32.64 166.199 32.688 166.151 32.704L162.839 34.312C162.807 34.328 162.767 34.336 162.719 34.336C162.559 34.336 162.415 34.168 162.287 33.832C162.175 33.48 162.111 33.008 162.095 32.416C161.039 33.664 159.895 34.288 158.663 34.288C157.783 34.288 157.087 34.016 156.575 33.472C156.079 32.912 155.831 32.184 155.831 31.288V27.76C155.831 26.72 155.583 26.2 155.087 26.2C154.911 26.2 154.711 26.256 154.487 26.368H154.463C154.399 26.368 154.351 26.328 154.319 26.248C154.287 26.152 154.295 26.096 154.343 26.08L157.559 24.544L157.679 24.52C157.759 24.52 157.839 24.56 157.919 24.64C158.015 24.704 158.063 24.768 158.063 24.832V30.136C158.063 31.864 158.727 32.728 160.055 32.728C160.407 32.728 160.759 32.656 161.111 32.512C161.479 32.352 161.807 32.136 162.095 31.864V27.76C162.095 26.72 161.847 26.2 161.351 26.2C161.175 26.2 160.967 26.256 160.727 26.368H160.703C160.655 26.368 160.615 26.328 160.583 26.248C160.551 26.152 160.559 26.096 160.607 26.08L163.823 24.544C163.855 24.528 163.895 24.52 163.943 24.52C164.023 24.52 164.103 24.56 164.183 24.64C164.279 24.704 164.327 24.768 164.327 24.832V31.216C164.327 31.76 164.375 32.144 164.471 32.368C164.583 32.592 164.759 32.704 164.999 32.704C165.223 32.704 165.551 32.616 165.983 32.44H166.031ZM173.348 24.496C173.716 24.496 174.068 24.632 174.404 24.904C174.756 25.16 174.932 25.472 174.932 25.84C174.932 26.176 174.828 26.456 174.62 26.68C174.412 26.888 174.14 26.992 173.804 26.992C173.564 26.992 173.364 26.944 173.204 26.848C173.06 26.752 172.908 26.608 172.748 26.416C172.604 26.256 172.476 26.144 172.364 26.08C172.268 26 172.148 25.96 172.004 25.96C171.844 25.96 171.668 26.024 171.476 26.152C171.3 26.264 171.02 26.512 170.636 26.896V32.056C170.636 32.696 170.788 33.136 171.092 33.376C171.396 33.6 171.956 33.712 172.772 33.712C172.836 33.712 172.868 33.76 172.868 33.856C172.868 33.952 172.836 34 172.772 34C172.212 34 171.772 33.992 171.452 33.976L169.508 33.952L168.092 33.976C167.852 33.992 167.524 34 167.108 34C167.06 34 167.036 33.952 167.036 33.856C167.036 33.76 167.06 33.712 167.108 33.712C167.604 33.712 167.94 33.6 168.116 33.376C168.292 33.136 168.38 32.696 168.38 32.056V27.544C168.38 27.048 168.316 26.688 168.188 26.464C168.076 26.224 167.892 26.104 167.636 26.104C167.364 26.104 166.98 26.216 166.484 26.44H166.436C166.388 26.44 166.348 26.4 166.316 26.32C166.3 26.24 166.308 26.192 166.34 26.176L169.676 24.544C169.772 24.512 169.828 24.496 169.844 24.496C170.02 24.496 170.18 24.664 170.324 25C170.484 25.32 170.58 25.76 170.612 26.32C171.268 25.648 171.804 25.176 172.22 24.904C172.652 24.632 173.028 24.496 173.348 24.496ZM188.067 24.496C188.435 24.496 188.787 24.632 189.123 24.904C189.475 25.16 189.651 25.472 189.651 25.84C189.651 26.176 189.547 26.456 189.339 26.68C189.131 26.888 188.859 26.992 188.523 26.992C188.283 26.992 188.083 26.944 187.923 26.848C187.779 26.752 187.627 26.608 187.467 26.416C187.323 26.256 187.195 26.144 187.083 26.08C186.987 26 186.867 25.96 186.723 25.96C186.563 25.96 186.387 26.024 186.195 26.152C186.019 26.264 185.739 26.512 185.355 26.896V32.056C185.355 32.696 185.507 33.136 185.811 33.376C186.115 33.6 186.675 33.712 187.491 33.712C187.555 33.712 187.587 33.76 187.587 33.856C187.587 33.952 187.555 34 187.491 34C186.931 34 186.491 33.992 186.171 33.976L184.227 33.952L182.811 33.976C182.571 33.992 182.243 34 181.827 34C181.779 34 181.755 33.952 181.755 33.856C181.755 33.76 181.779 33.712 181.827 33.712C182.323 33.712 182.659 33.6 182.835 33.376C183.011 33.136 183.099 32.696 183.099 32.056V27.544C183.099 27.048 183.035 26.688 182.907 26.464C182.795 26.224 182.611 26.104 182.355 26.104C182.083 26.104 181.699 26.216 181.203 26.44H181.155C181.107 26.44 181.067 26.4 181.035 26.32C181.019 26.24 181.027 26.192 181.059 26.176L184.395 24.544C184.491 24.512 184.547 24.496 184.563 24.496C184.739 24.496 184.899 24.664 185.043 25C185.203 25.32 185.299 25.76 185.331 26.32C185.987 25.648 186.523 25.176 186.939 24.904C187.371 24.632 187.747 24.496 188.067 24.496ZM199.015 32.416C199.047 32.416 199.079 32.448 199.111 32.512C199.159 32.576 199.167 32.624 199.135 32.656C198.543 33.232 197.943 33.648 197.335 33.904C196.727 34.16 196.063 34.288 195.343 34.288C194.335 34.288 193.463 34.08 192.727 33.664C191.991 33.232 191.431 32.664 191.047 31.96C190.663 31.24 190.471 30.472 190.471 29.656C190.471 28.728 190.711 27.872 191.191 27.088C191.671 26.288 192.327 25.664 193.159 25.216C193.991 24.752 194.919 24.52 195.943 24.52C196.935 24.52 197.695 24.736 198.223 25.168C198.751 25.584 199.015 26.16 199.015 26.896C199.015 27.36 198.927 27.592 198.751 27.592H197.287L192.967 27.64C192.919 27.944 192.895 28.28 192.895 28.648C192.895 30.024 193.215 31.112 193.855 31.912C194.511 32.712 195.407 33.112 196.543 33.112C196.943 33.112 197.359 33.056 197.791 32.944C198.223 32.832 198.615 32.664 198.967 32.44L199.015 32.416ZM195.055 25C194.575 25 194.159 25.192 193.807 25.576C193.455 25.96 193.199 26.488 193.039 27.16L196.447 27.088C196.399 25.696 195.935 25 195.055 25ZM209.744 32.704C209.808 32.704 209.848 32.744 209.864 32.824C209.896 32.888 209.88 32.936 209.816 32.968L207.344 34.144C207.28 34.176 207.2 34.192 207.104 34.192C206.864 34.192 206.624 34.072 206.384 33.832C206.16 33.592 206 33.264 205.904 32.848L204.8 33.448C204.384 33.656 203.952 33.832 203.504 33.976C203.056 34.104 202.656 34.168 202.304 34.168C201.792 34.168 201.384 34.04 201.08 33.784C200.792 33.512 200.648 33.128 200.648 32.632C200.648 32.264 200.736 31.968 200.912 31.744C201.104 31.52 201.368 31.336 201.704 31.192C202.056 31.032 202.608 30.824 203.36 30.568L205.808 29.776V27.88C205.808 26.92 205.712 26.216 205.52 25.768C205.328 25.304 205.016 25.072 204.584 25.072C204.2 25.072 203.896 25.216 203.672 25.504C203.448 25.792 203.312 26.264 203.264 26.92C203.168 27.816 202.696 28.264 201.848 28.264C201.096 28.264 200.72 27.936 200.72 27.28C200.72 26.848 200.992 26.416 201.536 25.984C202.08 25.552 202.736 25.2 203.504 24.928C204.272 24.656 204.944 24.52 205.52 24.52C206.272 24.52 206.88 24.744 207.344 25.192C207.824 25.64 208.064 26.296 208.064 27.16V31.408C208.064 31.872 208.144 32.232 208.304 32.488C208.48 32.744 208.72 32.872 209.024 32.872C209.248 32.872 209.48 32.816 209.72 32.704H209.744ZM205.832 32.464C205.816 32.352 205.808 32.184 205.808 31.96V30.184L204.488 30.664C204.056 30.824 203.744 31 203.552 31.192C203.376 31.384 203.288 31.616 203.288 31.888C203.288 32.224 203.384 32.488 203.576 32.68C203.768 32.872 204.008 32.968 204.296 32.968C204.648 32.968 205.056 32.856 205.52 32.632L205.832 32.464ZM221.861 32.44C221.909 32.44 221.949 32.48 221.981 32.56C222.029 32.64 222.037 32.688 222.005 32.704L218.693 34.312L218.573 34.336C218.429 34.336 218.293 34.184 218.165 33.88C218.053 33.576 217.981 33.16 217.949 32.632C216.765 33.752 215.557 34.312 214.325 34.312C213.621 34.312 212.981 34.128 212.405 33.76C211.845 33.392 211.397 32.856 211.061 32.152C210.725 31.432 210.557 30.592 210.557 29.632C210.557 28.416 210.837 27.424 211.397 26.656C211.973 25.872 212.677 25.304 213.509 24.952C214.357 24.6 215.205 24.424 216.053 24.424C216.645 24.424 217.269 24.52 217.925 24.712V19.864C217.925 19.304 217.869 18.904 217.757 18.664C217.661 18.424 217.485 18.304 217.229 18.304C217.021 18.304 216.725 18.392 216.341 18.568H216.317C216.253 18.568 216.197 18.528 216.149 18.448C216.117 18.352 216.117 18.296 216.149 18.28L219.677 16.624L219.773 16.6C219.853 16.6 219.941 16.64 220.037 16.72C220.133 16.784 220.181 16.848 220.181 16.912V31.216C220.181 31.76 220.229 32.144 220.325 32.368C220.437 32.592 220.613 32.704 220.853 32.704C221.061 32.704 221.389 32.616 221.837 32.44H221.861ZM215.645 33.16C216.445 33.16 217.205 32.824 217.925 32.152V32.032V26.2C217.637 25.8 217.309 25.512 216.941 25.336C216.589 25.144 216.173 25.048 215.693 25.048C214.829 25.048 214.165 25.352 213.701 25.96C213.253 26.552 213.029 27.52 213.029 28.864C213.029 30.208 213.269 31.264 213.749 32.032C214.229 32.784 214.861 33.16 215.645 33.16ZM222.959 34C222.911 34 222.887 33.952 222.887 33.856C222.887 33.76 222.911 33.712 222.959 33.712C223.455 33.712 223.791 33.6 223.967 33.376C224.143 33.136 224.231 32.696 224.231 32.056V27.76C224.231 27.216 224.175 26.824 224.063 26.584C223.951 26.344 223.767 26.224 223.511 26.224C223.303 26.224 223.007 26.312 222.623 26.488H222.599C222.535 26.488 222.487 26.448 222.455 26.368C222.423 26.272 222.431 26.216 222.479 26.2L226.103 24.52L226.175 24.496C226.255 24.496 226.335 24.536 226.415 24.616C226.495 24.696 226.535 24.768 226.535 24.832V25.36C226.503 26 226.487 26.784 226.487 27.712V32.056C226.487 32.696 226.575 33.136 226.751 33.376C226.943 33.6 227.287 33.712 227.783 33.712C227.831 33.712 227.855 33.76 227.855 33.856C227.855 33.952 227.831 34 227.783 34C227.367 34 227.039 33.992 226.799 33.976L225.359 33.952L223.943 33.976C223.703 33.992 223.375 34 222.959 34ZM225.263 22.12C224.799 22.12 224.439 21.992 224.183 21.736C223.927 21.48 223.799 21.12 223.799 20.656C223.799 20.24 223.927 19.912 224.183 19.672C224.455 19.416 224.815 19.288 225.263 19.288C225.711 19.288 226.055 19.408 226.295 19.648C226.535 19.888 226.655 20.224 226.655 20.656C226.655 21.12 226.535 21.48 226.295 21.736C226.055 21.992 225.711 22.12 225.263 22.12ZM240.544 33.712C240.592 33.712 240.616 33.76 240.616 33.856C240.616 33.952 240.592 34 240.544 34C240.128 34 239.8 33.992 239.56 33.976L238.12 33.952L236.728 33.976C236.472 33.992 236.136 34 235.72 34C235.672 34 235.648 33.952 235.648 33.856C235.648 33.76 235.672 33.712 235.72 33.712C236.216 33.712 236.552 33.6 236.728 33.376C236.904 33.136 236.992 32.696 236.992 32.056V28.6C236.992 27.736 236.832 27.096 236.512 26.68C236.208 26.264 235.72 26.056 235.048 26.056C234.664 26.056 234.264 26.136 233.848 26.296C233.448 26.456 233.096 26.672 232.792 26.944V32.056C232.792 32.696 232.88 33.136 233.056 33.376C233.248 33.6 233.592 33.712 234.088 33.712C234.136 33.712 234.16 33.76 234.16 33.856C234.16 33.952 234.136 34 234.088 34C233.672 34 233.344 33.992 233.104 33.976L231.664 33.952L230.248 33.976C230.008 33.992 229.68 34 229.264 34C229.216 34 229.192 33.952 229.192 33.856C229.192 33.76 229.216 33.712 229.264 33.712C229.76 33.712 230.096 33.6 230.272 33.376C230.448 33.136 230.536 32.696 230.536 32.056V27.544C230.536 27.048 230.472 26.688 230.344 26.464C230.232 26.224 230.048 26.104 229.792 26.104C229.52 26.104 229.136 26.216 228.64 26.44H228.592C228.544 26.44 228.504 26.4 228.472 26.32C228.456 26.24 228.464 26.192 228.496 26.176L231.832 24.544C231.928 24.512 231.984 24.496 232 24.496C232.176 24.496 232.344 24.672 232.504 25.024C232.664 25.36 232.76 25.824 232.792 26.416C233.896 25.104 235.112 24.448 236.44 24.448C237.304 24.448 237.984 24.728 238.48 25.288C238.992 25.832 239.248 26.552 239.248 27.448V32.056C239.248 32.696 239.336 33.136 239.512 33.376C239.704 33.6 240.048 33.712 240.544 33.712ZM247.105 32.944C248.049 33.104 248.801 33.264 249.361 33.424C249.921 33.584 250.401 33.856 250.801 34.24C251.217 34.624 251.425 35.168 251.425 35.872C251.425 36.736 251.145 37.544 250.585 38.296C250.041 39.048 249.297 39.648 248.353 40.096C247.425 40.544 246.417 40.768 245.329 40.768C244.145 40.768 243.177 40.512 242.425 40C241.673 39.488 241.297 38.824 241.297 38.008C241.297 37.464 241.473 36.904 241.825 36.328C242.177 35.752 242.833 35.12 243.793 34.432C243.313 34.288 242.937 34.08 242.665 33.808C242.409 33.536 242.281 33.168 242.281 32.704C242.281 32.304 242.433 31.896 242.737 31.48C243.057 31.048 243.545 30.648 244.201 30.28C243.497 30.04 242.953 29.672 242.569 29.176C242.185 28.68 241.993 28.144 241.993 27.568C241.993 26.928 242.201 26.384 242.617 25.936C243.033 25.488 243.561 25.152 244.201 24.928C244.841 24.688 245.481 24.568 246.121 24.568C247.193 24.568 248.081 24.832 248.785 25.36C249.217 25.072 249.641 24.856 250.057 24.712C250.473 24.568 250.921 24.496 251.401 24.496C251.529 24.496 251.593 24.72 251.593 25.168C251.593 25.392 251.561 25.64 251.497 25.912C251.433 26.184 251.377 26.296 251.329 26.248C250.657 25.976 250.057 25.84 249.529 25.84H249.337C249.753 26.336 249.961 26.896 249.961 27.52C249.961 28.128 249.753 28.664 249.337 29.128C248.937 29.576 248.417 29.92 247.777 30.16C247.137 30.4 246.481 30.52 245.809 30.52C245.377 30.52 244.969 30.472 244.585 30.376C244.265 30.632 244.105 30.96 244.105 31.36C244.105 31.712 244.233 31.984 244.489 32.176C244.761 32.368 245.089 32.512 245.473 32.608C245.857 32.704 246.401 32.816 247.105 32.944ZM245.329 25.024C244.657 25.024 244.321 25.656 244.321 26.92C244.321 27.752 244.521 28.488 244.921 29.128C245.321 29.768 245.833 30.088 246.457 30.088C246.761 30.088 247.025 29.928 247.249 29.608C247.489 29.288 247.609 28.784 247.609 28.096C247.609 27.232 247.385 26.504 246.937 25.912C246.489 25.32 245.953 25.024 245.329 25.024ZM246.601 40C247.433 40 248.105 39.752 248.617 39.256C249.145 38.776 249.409 38.128 249.409 37.312C249.409 36.704 249.233 36.232 248.881 35.896C248.545 35.576 248.129 35.344 247.633 35.2C247.153 35.072 246.489 34.944 245.641 34.816L244.345 34.6C243.897 35.128 243.673 35.88 243.673 36.856C243.673 37.864 243.945 38.64 244.489 39.184C245.033 39.728 245.737 40 246.601 40ZM274.814 33.712C274.878 33.728 274.902 33.784 274.886 33.88C274.886 33.96 274.862 34 274.814 34H270.878C270.43 34 269.662 33.608 268.574 32.824C267.374 33.8 265.846 34.288 263.99 34.288C262.886 34.288 261.958 34.128 261.206 33.808C260.454 33.488 259.894 33.064 259.526 32.536C259.158 32.008 258.974 31.448 258.974 30.856C258.974 30.088 259.238 29.4 259.766 28.792C260.294 28.184 261.094 27.48 262.166 26.68C261.91 26.344 261.662 25.96 261.422 25.528C261.198 25.08 261.022 24.656 260.894 24.256C260.782 23.856 260.726 23.416 260.726 22.936C260.726 21.64 261.134 20.576 261.95 19.744C262.782 18.912 263.91 18.496 265.334 18.496C266.326 18.496 267.11 18.712 267.686 19.144C268.262 19.56 268.55 20.144 268.55 20.896C268.55 21.52 268.366 22.096 267.998 22.624C267.646 23.136 267.238 23.568 266.774 23.92C266.31 24.272 265.59 24.776 264.614 25.432C265.766 27.144 267.374 28.824 269.438 30.472C269.582 29.912 269.654 29.28 269.654 28.576C269.654 27.648 269.502 26.976 269.198 26.56C268.894 26.128 268.398 25.912 267.71 25.912C267.678 25.912 267.654 25.864 267.638 25.768C267.638 25.672 267.662 25.624 267.71 25.624L273.422 25.6C273.47 25.6 273.494 25.648 273.494 25.744C273.494 25.84 273.47 25.888 273.422 25.888C272.942 25.888 272.582 25.944 272.342 26.056C272.118 26.152 271.942 26.32 271.814 26.56C271.702 26.8 271.574 27.184 271.43 27.712C271.254 28.352 271.07 28.936 270.878 29.464C270.686 29.992 270.438 30.504 270.134 31C271.174 31.784 272.094 32.4 272.894 32.848C273.71 33.296 274.35 33.584 274.814 33.712ZM262.982 20.872C262.982 22.12 263.422 23.472 264.302 24.928C265.438 23.824 266.006 22.648 266.006 21.4C266.006 20.696 265.838 20.144 265.502 19.744C265.182 19.344 264.758 19.144 264.23 19.144C263.782 19.144 263.462 19.288 263.27 19.576C263.078 19.864 262.982 20.296 262.982 20.872ZM265.838 33.112C266.766 33.112 267.534 32.904 268.142 32.488C267.886 32.312 267.542 32.048 267.11 31.696C266.294 31.04 265.47 30.312 264.638 29.512C263.822 28.696 263.102 27.896 262.478 27.112C261.758 27.864 261.398 28.656 261.398 29.488C261.398 30.112 261.574 30.704 261.926 31.264C262.294 31.808 262.814 32.256 263.486 32.608C264.158 32.944 264.942 33.112 265.838 33.112ZM65.832 51.888C65.832 52.352 65.992 52.752 66.312 53.088C66.648 53.424 67.128 53.776 67.752 54.144C68.36 54.496 68.808 54.776 69.096 54.984C69.4 55.176 69.672 55.456 69.912 55.824C70.152 56.176 70.272 56.608 70.272 57.12C70.272 57.664 70.136 58.176 69.864 58.656C69.592 59.136 69.184 59.528 68.64 59.832C68.096 60.12 67.448 60.264 66.696 60.264C65.816 60.264 64.984 60.048 64.2 59.616C64.104 59.52 64.056 59.424 64.056 59.328L64.008 56.952C64.008 56.904 64.048 56.88 64.128 56.88C64.224 56.864 64.28 56.872 64.296 56.904C64.552 57.704 64.976 58.384 65.568 58.944C66.16 59.504 66.76 59.784 67.368 59.784C67.704 59.784 67.968 59.68 68.16 59.472C68.368 59.264 68.472 58.96 68.472 58.56C68.472 57.968 68.304 57.504 67.968 57.168C67.632 56.816 67.136 56.456 66.48 56.088C65.92 55.784 65.496 55.536 65.208 55.344C64.92 55.152 64.664 54.88 64.44 54.528C64.216 54.176 64.104 53.744 64.104 53.232C64.104 52.288 64.44 51.6 65.112 51.168C65.784 50.72 66.608 50.496 67.584 50.496C67.952 50.496 68.28 50.52 68.568 50.568C68.872 50.616 69.208 50.712 69.576 50.856C69.72 50.904 69.792 50.992 69.792 51.12C69.792 51.52 69.784 51.832 69.768 52.056L69.744 53.256C69.744 53.304 69.696 53.328 69.6 53.328C69.504 53.328 69.456 53.304 69.456 53.256C69.456 52.952 69.328 52.624 69.072 52.272C68.816 51.904 68.48 51.592 68.064 51.336C67.664 51.08 67.248 50.952 66.816 50.952C66.16 50.952 65.832 51.264 65.832 51.888ZM82.8699 59.712C82.9339 59.712 82.9659 59.76 82.9659 59.856C82.9659 59.952 82.9339 60 82.8699 60C82.4539 60 82.1179 59.992 81.8619 59.976L80.4699 59.952L79.0299 59.976C78.7899 59.992 78.4619 60 78.0459 60C78.0139 60 77.9979 59.952 77.9979 59.856C77.9979 59.76 78.0139 59.712 78.0459 59.712C78.5419 59.712 78.8779 59.6 79.0539 59.376C79.2459 59.136 79.3419 58.696 79.3419 58.056V54.6C79.3419 53.736 79.1819 53.096 78.8619 52.68C78.5419 52.264 78.0459 52.056 77.3739 52.056C76.9899 52.056 76.5899 52.136 76.1739 52.296C75.7739 52.456 75.4219 52.672 75.1179 52.944V58.056C75.1179 58.696 75.2059 59.136 75.3819 59.376C75.5739 59.6 75.9179 59.712 76.4139 59.712C76.4779 59.712 76.5099 59.76 76.5099 59.856C76.5099 59.952 76.4779 60 76.4139 60C75.9979 60 75.6619 59.992 75.4059 59.976L74.0139 59.952L72.5739 59.976C72.3339 59.992 72.0059 60 71.5899 60C71.5579 60 71.5419 59.952 71.5419 59.856C71.5419 59.76 71.5579 59.712 71.5899 59.712C72.0859 59.712 72.4219 59.6 72.5979 59.376C72.7899 59.136 72.8859 58.696 72.8859 58.056V45.864C72.8859 45.304 72.8299 44.904 72.7179 44.664C72.6219 44.424 72.4459 44.304 72.1899 44.304C71.9659 44.304 71.6619 44.392 71.2779 44.568H71.2539C71.2059 44.568 71.1579 44.528 71.1099 44.448C71.0779 44.352 71.0779 44.296 71.1099 44.28L74.6139 42.624L74.7339 42.6C74.8139 42.6 74.8939 42.64 74.9739 42.72C75.0699 42.784 75.1179 42.848 75.1179 42.912V52.416C76.2539 51.104 77.4699 50.448 78.7659 50.448C79.6299 50.448 80.3099 50.728 80.8059 51.288C81.3179 51.832 81.5739 52.552 81.5739 53.448V58.056C81.5739 58.696 81.6619 59.136 81.8379 59.376C82.0299 59.6 82.3739 59.712 82.8699 59.712ZM93.3529 58.704C93.4169 58.704 93.4569 58.744 93.4729 58.824C93.5049 58.888 93.4889 58.936 93.4249 58.968L90.9529 60.144C90.8889 60.176 90.8089 60.192 90.7129 60.192C90.4729 60.192 90.2329 60.072 89.9929 59.832C89.7689 59.592 89.6089 59.264 89.5129 58.848L88.4089 59.448C87.9929 59.656 87.5609 59.832 87.1129 59.976C86.6649 60.104 86.2649 60.168 85.9129 60.168C85.4009 60.168 84.9929 60.04 84.6889 59.784C84.4009 59.512 84.2569 59.128 84.2569 58.632C84.2569 58.264 84.3449 57.968 84.5209 57.744C84.7129 57.52 84.9769 57.336 85.3129 57.192C85.6649 57.032 86.2169 56.824 86.9689 56.568L89.4169 55.776V53.88C89.4169 52.92 89.3209 52.216 89.1289 51.768C88.9369 51.304 88.6249 51.072 88.1929 51.072C87.8089 51.072 87.5049 51.216 87.2809 51.504C87.0569 51.792 86.9209 52.264 86.8729 52.92C86.7769 53.816 86.3049 54.264 85.4569 54.264C84.7049 54.264 84.3289 53.936 84.3289 53.28C84.3289 52.848 84.6009 52.416 85.1449 51.984C85.6889 51.552 86.3449 51.2 87.1129 50.928C87.8809 50.656 88.5529 50.52 89.1289 50.52C89.8809 50.52 90.4889 50.744 90.9529 51.192C91.4329 51.64 91.6729 52.296 91.6729 53.16V57.408C91.6729 57.872 91.7529 58.232 91.9129 58.488C92.0889 58.744 92.3289 58.872 92.6329 58.872C92.8569 58.872 93.0889 58.816 93.3289 58.704H93.3529ZM89.4409 58.464C89.4249 58.352 89.4169 58.184 89.4169 57.96V56.184L88.0969 56.664C87.6649 56.824 87.3529 57 87.1609 57.192C86.9849 57.384 86.8969 57.616 86.8969 57.888C86.8969 58.224 86.9929 58.488 87.1849 58.68C87.3769 58.872 87.6169 58.968 87.9049 58.968C88.2569 58.968 88.6649 58.856 89.1289 58.632L89.4409 58.464ZM100.574 50.496C100.942 50.496 101.294 50.632 101.63 50.904C101.982 51.16 102.158 51.472 102.158 51.84C102.158 52.176 102.054 52.456 101.846 52.68C101.638 52.888 101.366 52.992 101.03 52.992C100.79 52.992 100.59 52.944 100.43 52.848C100.286 52.752 100.134 52.608 99.9744 52.416C99.8304 52.256 99.7024 52.144 99.5904 52.08C99.4944 52 99.3744 51.96 99.2304 51.96C99.0704 51.96 98.8944 52.024 98.7024 52.152C98.5264 52.264 98.2464 52.512 97.8624 52.896V58.056C97.8624 58.696 98.0144 59.136 98.3184 59.376C98.6224 59.6 99.1824 59.712 99.9984 59.712C100.062 59.712 100.094 59.76 100.094 59.856C100.094 59.952 100.062 60 99.9984 60C99.4384 60 98.9984 59.992 98.6784 59.976L96.7344 59.952L95.3184 59.976C95.0784 59.992 94.7504 60 94.3344 60C94.2864 60 94.2624 59.952 94.2624 59.856C94.2624 59.76 94.2864 59.712 94.3344 59.712C94.8304 59.712 95.1664 59.6 95.3424 59.376C95.5184 59.136 95.6064 58.696 95.6064 58.056V53.544C95.6064 53.048 95.5424 52.688 95.4144 52.464C95.3024 52.224 95.1184 52.104 94.8624 52.104C94.5904 52.104 94.2064 52.216 93.7104 52.44H93.6624C93.6144 52.44 93.5744 52.4 93.5424 52.32C93.5264 52.24 93.5344 52.192 93.5664 52.176L96.9024 50.544C96.9984 50.512 97.0544 50.496 97.0704 50.496C97.2464 50.496 97.4064 50.664 97.5504 51C97.7104 51.32 97.8064 51.76 97.8384 52.32C98.4944 51.648 99.0304 51.176 99.4464 50.904C99.8784 50.632 100.254 50.496 100.574 50.496ZM111.523 58.416C111.555 58.416 111.587 58.448 111.619 58.512C111.667 58.576 111.675 58.624 111.643 58.656C111.051 59.232 110.451 59.648 109.843 59.904C109.235 60.16 108.571 60.288 107.851 60.288C106.843 60.288 105.971 60.08 105.235 59.664C104.499 59.232 103.939 58.664 103.555 57.96C103.171 57.24 102.979 56.472 102.979 55.656C102.979 54.728 103.219 53.872 103.699 53.088C104.179 52.288 104.835 51.664 105.667 51.216C106.499 50.752 107.427 50.52 108.451 50.52C109.443 50.52 110.203 50.736 110.731 51.168C111.259 51.584 111.523 52.16 111.523 52.896C111.523 53.36 111.435 53.592 111.259 53.592H109.795L105.475 53.64C105.427 53.944 105.403 54.28 105.403 54.648C105.403 56.024 105.723 57.112 106.363 57.912C107.019 58.712 107.915 59.112 109.051 59.112C109.451 59.112 109.867 59.056 110.299 58.944C110.731 58.832 111.123 58.664 111.475 58.44L111.523 58.416ZM107.563 51C107.083 51 106.667 51.192 106.315 51.576C105.963 51.96 105.707 52.488 105.547 53.16L108.955 53.088C108.907 51.696 108.443 51 107.563 51ZM125.643 58.32C125.707 58.32 125.755 58.352 125.787 58.416C125.835 58.48 125.835 58.528 125.787 58.56C125.195 59.152 124.619 59.592 124.059 59.88C123.499 60.152 122.907 60.288 122.283 60.288C121.579 60.288 120.979 60.12 120.483 59.784C119.987 59.448 119.739 58.88 119.739 58.08V52.752C119.739 52.256 119.651 51.912 119.475 51.72C119.299 51.528 118.979 51.432 118.515 51.432C118.499 51.432 118.475 51.408 118.443 51.36C118.427 51.312 118.419 51.264 118.419 51.216C118.419 51.152 118.427 51.104 118.443 51.072C118.459 51.024 118.483 51 118.515 51C119.331 50.968 119.987 50.792 120.483 50.472C120.995 50.152 121.387 49.664 121.659 49.008C121.691 48.944 121.755 48.912 121.851 48.912C121.963 48.912 122.019 48.944 122.019 49.008V50.928C122.947 50.912 123.987 50.84 125.139 50.712C125.171 50.712 125.203 50.776 125.235 50.904C125.283 51.016 125.307 51.144 125.307 51.288C125.307 51.448 125.275 51.608 125.211 51.768C125.163 51.912 125.107 51.976 125.043 51.96C124.003 51.736 122.995 51.616 122.019 51.6V57.288C122.019 57.896 122.171 58.344 122.475 58.632C122.795 58.92 123.211 59.064 123.723 59.064C124.363 59.064 124.987 58.824 125.595 58.344L125.643 58.32ZM137.714 59.712C137.778 59.712 137.81 59.76 137.81 59.856C137.81 59.952 137.778 60 137.714 60C137.298 60 136.962 59.992 136.706 59.976L135.314 59.952L133.874 59.976C133.634 59.992 133.306 60 132.89 60C132.858 60 132.842 59.952 132.842 59.856C132.842 59.76 132.858 59.712 132.89 59.712C133.386 59.712 133.722 59.6 133.898 59.376C134.09 59.136 134.186 58.696 134.186 58.056V54.6C134.186 53.736 134.026 53.096 133.706 52.68C133.386 52.264 132.89 52.056 132.218 52.056C131.834 52.056 131.434 52.136 131.018 52.296C130.618 52.456 130.266 52.672 129.962 52.944V58.056C129.962 58.696 130.05 59.136 130.226 59.376C130.418 59.6 130.762 59.712 131.258 59.712C131.322 59.712 131.354 59.76 131.354 59.856C131.354 59.952 131.322 60 131.258 60C130.842 60 130.506 59.992 130.25 59.976L128.858 59.952L127.418 59.976C127.178 59.992 126.85 60 126.434 60C126.402 60 126.386 59.952 126.386 59.856C126.386 59.76 126.402 59.712 126.434 59.712C126.93 59.712 127.266 59.6 127.442 59.376C127.634 59.136 127.73 58.696 127.73 58.056V45.864C127.73 45.304 127.674 44.904 127.562 44.664C127.466 44.424 127.29 44.304 127.034 44.304C126.81 44.304 126.506 44.392 126.122 44.568H126.098C126.05 44.568 126.002 44.528 125.954 44.448C125.922 44.352 125.922 44.296 125.954 44.28L129.458 42.624L129.578 42.6C129.658 42.6 129.738 42.64 129.818 42.72C129.914 42.784 129.962 42.848 129.962 42.912V52.416C131.098 51.104 132.314 50.448 133.61 50.448C134.474 50.448 135.154 50.728 135.65 51.288C136.162 51.832 136.418 52.552 136.418 53.448V58.056C136.418 58.696 136.506 59.136 136.682 59.376C136.874 59.6 137.218 59.712 137.714 59.712ZM147.453 58.416C147.485 58.416 147.517 58.448 147.549 58.512C147.597 58.576 147.605 58.624 147.573 58.656C146.981 59.232 146.381 59.648 145.773 59.904C145.165 60.16 144.501 60.288 143.781 60.288C142.773 60.288 141.901 60.08 141.165 59.664C140.429 59.232 139.869 58.664 139.485 57.96C139.101 57.24 138.909 56.472 138.909 55.656C138.909 54.728 139.149 53.872 139.629 53.088C140.109 52.288 140.765 51.664 141.597 51.216C142.429 50.752 143.357 50.52 144.381 50.52C145.373 50.52 146.133 50.736 146.661 51.168C147.189 51.584 147.453 52.16 147.453 52.896C147.453 53.36 147.365 53.592 147.189 53.592H145.725L141.405 53.64C141.357 53.944 141.333 54.28 141.333 54.648C141.333 56.024 141.653 57.112 142.293 57.912C142.949 58.712 143.845 59.112 144.981 59.112C145.381 59.112 145.797 59.056 146.229 58.944C146.661 58.832 147.053 58.664 147.405 58.44L147.453 58.416ZM143.493 51C143.013 51 142.597 51.192 142.245 51.576C141.893 51.96 141.637 52.488 141.477 53.16L144.885 53.088C144.837 51.696 144.373 51 143.493 51ZM163.109 58.416C163.141 58.416 163.173 58.448 163.205 58.512C163.253 58.576 163.261 58.624 163.229 58.656C162.637 59.232 162.037 59.648 161.429 59.904C160.821 60.16 160.157 60.288 159.437 60.288C158.429 60.288 157.557 60.08 156.821 59.664C156.085 59.232 155.525 58.664 155.141 57.96C154.757 57.24 154.565 56.472 154.565 55.656C154.565 54.728 154.805 53.872 155.285 53.088C155.765 52.288 156.421 51.664 157.253 51.216C158.085 50.752 159.013 50.52 160.037 50.52C161.029 50.52 161.789 50.736 162.317 51.168C162.845 51.584 163.109 52.16 163.109 52.896C163.109 53.36 163.021 53.592 162.845 53.592H161.381L157.061 53.64C157.013 53.944 156.989 54.28 156.989 54.648C156.989 56.024 157.309 57.112 157.949 57.912C158.605 58.712 159.501 59.112 160.637 59.112C161.037 59.112 161.453 59.056 161.885 58.944C162.317 58.832 162.709 58.664 163.061 58.44L163.109 58.416ZM159.149 51C158.669 51 158.253 51.192 157.901 51.576C157.549 51.96 157.293 52.488 157.133 53.16L160.541 53.088C160.493 51.696 160.029 51 159.149 51ZM174.292 59.712C174.34 59.712 174.364 59.76 174.364 59.856C174.364 59.952 174.34 60 174.292 60L173.428 59.976C173.22 59.96 172.924 59.952 172.54 59.952L170.836 59.976C170.58 59.992 170.228 60 169.78 60C169.732 60 169.708 59.952 169.708 59.856C169.708 59.76 169.732 59.712 169.78 59.712C170.132 59.712 170.308 59.6 170.308 59.376C170.308 59.2 170.228 59 170.068 58.776L168.508 56.424L167.668 57.648C167.3 58.176 167.116 58.624 167.116 58.992C167.116 59.472 167.468 59.712 168.172 59.712C168.22 59.712 168.244 59.76 168.244 59.856C168.244 59.952 168.22 60 168.172 60C167.74 60 167.42 59.992 167.212 59.976L165.772 59.952L164.788 59.976C164.612 59.992 164.324 60 163.924 60C163.876 60 163.852 59.952 163.852 59.856C163.852 59.76 163.876 59.712 163.924 59.712C164.42 59.712 164.948 59.512 165.508 59.112C166.068 58.712 166.596 58.168 167.092 57.48L168.196 55.968L166.036 52.728C165.284 51.592 164.66 51.024 164.164 51.024C164.132 51.024 164.116 50.976 164.116 50.88C164.116 50.784 164.132 50.736 164.164 50.736C164.5 50.736 164.748 50.744 164.908 50.76L165.652 50.784L167.332 50.76C167.588 50.744 167.948 50.736 168.412 50.736C168.444 50.736 168.46 50.784 168.46 50.88C168.46 50.976 168.444 51.024 168.412 51.024C168.06 51.024 167.884 51.144 167.884 51.384C167.884 51.544 167.964 51.736 168.124 51.96L169.516 54.072L170.188 53.088C170.572 52.528 170.764 52.08 170.764 51.744C170.764 51.264 170.404 51.024 169.684 51.024C169.652 51.024 169.636 50.976 169.636 50.88C169.636 50.784 169.652 50.736 169.684 50.736C170.116 50.736 170.444 50.744 170.668 50.76L172.108 50.784L173.092 50.76C173.268 50.744 173.556 50.736 173.956 50.736C174.004 50.736 174.028 50.784 174.028 50.88C174.028 50.976 174.004 51.024 173.956 51.024C173.46 51.024 172.932 51.224 172.372 51.624C171.812 52.024 171.284 52.568 170.788 53.256L169.828 54.528L172.132 58.008C172.516 58.584 172.892 59.016 173.26 59.304C173.644 59.576 173.988 59.712 174.292 59.712ZM180.662 60.312C179.878 60.312 179.19 60.224 178.598 60.048V64.656C178.598 65.136 178.646 65.488 178.742 65.712C178.854 65.936 179.054 66.088 179.342 66.168C179.646 66.264 180.11 66.312 180.734 66.312C180.782 66.312 180.806 66.36 180.806 66.456C180.806 66.552 180.782 66.6 180.734 66.6C180.142 66.6 179.678 66.592 179.342 66.576L177.446 66.552L176.03 66.576C175.79 66.592 175.454 66.6 175.022 66.6C174.974 66.6 174.95 66.552 174.95 66.456C174.95 66.36 174.974 66.312 175.022 66.312C175.406 66.312 175.686 66.264 175.862 66.168C176.054 66.088 176.182 65.936 176.246 65.712C176.326 65.488 176.366 65.136 176.366 64.656V53.544C176.366 53.032 176.31 52.664 176.198 52.44C176.086 52.216 175.886 52.104 175.598 52.104C175.342 52.104 174.974 52.216 174.494 52.44H174.446C174.398 52.44 174.358 52.4 174.326 52.32C174.278 52.24 174.27 52.192 174.302 52.176L177.71 50.52C177.742 50.504 177.782 50.496 177.83 50.496C177.99 50.496 178.134 50.632 178.262 50.904C178.406 51.176 178.502 51.544 178.55 52.008C179.718 50.952 180.918 50.424 182.15 50.424C182.822 50.424 183.446 50.6 184.022 50.952C184.614 51.304 185.086 51.816 185.438 52.488C185.79 53.16 185.966 53.944 185.966 54.84C185.966 56.12 185.702 57.176 185.174 58.008C184.646 58.824 183.974 59.416 183.158 59.784C182.358 60.136 181.526 60.312 180.662 60.312ZM180.566 51.768C179.846 51.768 179.19 52.024 178.598 52.536V52.728V58.512C178.95 58.912 179.318 59.216 179.702 59.424C180.086 59.616 180.558 59.712 181.118 59.712C182.734 59.712 183.542 58.336 183.542 55.584C183.542 54.368 183.254 53.432 182.678 52.776C182.118 52.104 181.414 51.768 180.566 51.768ZM196.015 58.416C196.047 58.416 196.079 58.448 196.111 58.512C196.159 58.576 196.167 58.624 196.135 58.656C195.543 59.232 194.943 59.648 194.335 59.904C193.727 60.16 193.063 60.288 192.343 60.288C191.335 60.288 190.463 60.08 189.727 59.664C188.991 59.232 188.431 58.664 188.047 57.96C187.663 57.24 187.471 56.472 187.471 55.656C187.471 54.728 187.711 53.872 188.191 53.088C188.671 52.288 189.327 51.664 190.159 51.216C190.991 50.752 191.919 50.52 192.943 50.52C193.935 50.52 194.695 50.736 195.223 51.168C195.751 51.584 196.015 52.16 196.015 52.896C196.015 53.36 195.927 53.592 195.751 53.592H194.287L189.967 53.64C189.919 53.944 189.895 54.28 189.895 54.648C189.895 56.024 190.215 57.112 190.855 57.912C191.511 58.712 192.407 59.112 193.543 59.112C193.943 59.112 194.359 59.056 194.791 58.944C195.223 58.832 195.615 58.664 195.967 58.44L196.015 58.416ZM192.055 51C191.575 51 191.159 51.192 190.807 51.576C190.455 51.96 190.199 52.488 190.039 53.16L193.447 53.088C193.399 51.696 192.935 51 192.055 51ZM203.91 50.496C204.278 50.496 204.63 50.632 204.966 50.904C205.318 51.16 205.494 51.472 205.494 51.84C205.494 52.176 205.39 52.456 205.182 52.68C204.974 52.888 204.702 52.992 204.366 52.992C204.126 52.992 203.926 52.944 203.766 52.848C203.622 52.752 203.47 52.608 203.31 52.416C203.166 52.256 203.038 52.144 202.926 52.08C202.83 52 202.71 51.96 202.566 51.96C202.406 51.96 202.23 52.024 202.038 52.152C201.862 52.264 201.582 52.512 201.198 52.896V58.056C201.198 58.696 201.35 59.136 201.654 59.376C201.958 59.6 202.518 59.712 203.334 59.712C203.398 59.712 203.43 59.76 203.43 59.856C203.43 59.952 203.398 60 203.334 60C202.774 60 202.334 59.992 202.014 59.976L200.07 59.952L198.654 59.976C198.414 59.992 198.086 60 197.67 60C197.622 60 197.598 59.952 197.598 59.856C197.598 59.76 197.622 59.712 197.67 59.712C198.166 59.712 198.502 59.6 198.678 59.376C198.854 59.136 198.942 58.696 198.942 58.056V53.544C198.942 53.048 198.878 52.688 198.75 52.464C198.638 52.224 198.454 52.104 198.198 52.104C197.926 52.104 197.542 52.216 197.046 52.44H196.998C196.95 52.44 196.91 52.4 196.878 52.32C196.862 52.24 196.87 52.192 196.902 52.176L200.238 50.544C200.334 50.512 200.39 50.496 200.406 50.496C200.582 50.496 200.742 50.664 200.886 51C201.046 51.32 201.142 51.76 201.174 52.32C201.83 51.648 202.366 51.176 202.782 50.904C203.214 50.632 203.59 50.496 203.91 50.496ZM206.764 60C206.716 60 206.692 59.952 206.692 59.856C206.692 59.76 206.716 59.712 206.764 59.712C207.26 59.712 207.596 59.6 207.772 59.376C207.948 59.136 208.036 58.696 208.036 58.056V53.76C208.036 53.216 207.98 52.824 207.868 52.584C207.756 52.344 207.572 52.224 207.316 52.224C207.108 52.224 206.812 52.312 206.428 52.488H206.404C206.34 52.488 206.292 52.448 206.26 52.368C206.228 52.272 206.236 52.216 206.284 52.2L209.908 50.52L209.98 50.496C210.06 50.496 210.14 50.536 210.22 50.616C210.3 50.696 210.34 50.768 210.34 50.832V51.36C210.308 52 210.292 52.784 210.292 53.712V58.056C210.292 58.696 210.38 59.136 210.556 59.376C210.748 59.6 211.092 59.712 211.588 59.712C211.636 59.712 211.66 59.76 211.66 59.856C211.66 59.952 211.636 60 211.588 60C211.172 60 210.844 59.992 210.604 59.976L209.164 59.952L207.748 59.976C207.508 59.992 207.18 60 206.764 60ZM209.068 48.12C208.604 48.12 208.244 47.992 207.988 47.736C207.732 47.48 207.604 47.12 207.604 46.656C207.604 46.24 207.732 45.912 207.988 45.672C208.26 45.416 208.62 45.288 209.068 45.288C209.516 45.288 209.86 45.408 210.1 45.648C210.34 45.888 210.46 46.224 210.46 46.656C210.46 47.12 210.34 47.48 210.1 47.736C209.86 47.992 209.516 48.12 209.068 48.12ZM221.445 58.416C221.477 58.416 221.509 58.448 221.541 58.512C221.589 58.576 221.597 58.624 221.565 58.656C220.973 59.232 220.373 59.648 219.765 59.904C219.157 60.16 218.493 60.288 217.773 60.288C216.765 60.288 215.893 60.08 215.157 59.664C214.421 59.232 213.861 58.664 213.477 57.96C213.093 57.24 212.901 56.472 212.901 55.656C212.901 54.728 213.141 53.872 213.621 53.088C214.101 52.288 214.757 51.664 215.589 51.216C216.421 50.752 217.349 50.52 218.373 50.52C219.365 50.52 220.125 50.736 220.653 51.168C221.181 51.584 221.445 52.16 221.445 52.896C221.445 53.36 221.357 53.592 221.181 53.592H219.717L215.397 53.64C215.349 53.944 215.325 54.28 215.325 54.648C215.325 56.024 215.645 57.112 216.285 57.912C216.941 58.712 217.837 59.112 218.973 59.112C219.373 59.112 219.789 59.056 220.221 58.944C220.653 58.832 221.045 58.664 221.397 58.44L221.445 58.416ZM217.485 51C217.005 51 216.589 51.192 216.237 51.576C215.885 51.96 215.629 52.488 215.469 53.16L218.877 53.088C218.829 51.696 218.365 51 217.485 51ZM234.38 59.712C234.428 59.712 234.452 59.76 234.452 59.856C234.452 59.952 234.428 60 234.38 60C233.964 60 233.636 59.992 233.396 59.976L231.956 59.952L230.564 59.976C230.308 59.992 229.972 60 229.556 60C229.508 60 229.484 59.952 229.484 59.856C229.484 59.76 229.508 59.712 229.556 59.712C230.052 59.712 230.388 59.6 230.564 59.376C230.74 59.136 230.828 58.696 230.828 58.056V54.6C230.828 53.736 230.668 53.096 230.348 52.68C230.044 52.264 229.556 52.056 228.884 52.056C228.5 52.056 228.1 52.136 227.684 52.296C227.284 52.456 226.932 52.672 226.628 52.944V58.056C226.628 58.696 226.716 59.136 226.892 59.376C227.084 59.6 227.428 59.712 227.924 59.712C227.972 59.712 227.996 59.76 227.996 59.856C227.996 59.952 227.972 60 227.924 60C227.508 60 227.18 59.992 226.94 59.976L225.5 59.952L224.084 59.976C223.844 59.992 223.516 60 223.1 60C223.052 60 223.028 59.952 223.028 59.856C223.028 59.76 223.052 59.712 223.1 59.712C223.596 59.712 223.932 59.6 224.108 59.376C224.284 59.136 224.372 58.696 224.372 58.056V53.544C224.372 53.048 224.308 52.688 224.18 52.464C224.068 52.224 223.884 52.104 223.628 52.104C223.356 52.104 222.972 52.216 222.476 52.44H222.428C222.38 52.44 222.34 52.4 222.308 52.32C222.292 52.24 222.3 52.192 222.332 52.176L225.668 50.544C225.764 50.512 225.82 50.496 225.836 50.496C226.012 50.496 226.18 50.672 226.34 51.024C226.5 51.36 226.596 51.824 226.628 52.416C227.732 51.104 228.948 50.448 230.276 50.448C231.14 50.448 231.82 50.728 232.316 51.288C232.828 51.832 233.084 52.552 233.084 53.448V58.056C233.084 58.696 233.172 59.136 233.348 59.376C233.54 59.6 233.884 59.712 234.38 59.712ZM240.413 60.288C239.357 60.288 238.461 60.064 237.725 59.616C237.005 59.152 236.461 58.56 236.093 57.84C235.741 57.104 235.565 56.336 235.565 55.536C235.565 54.528 235.845 53.648 236.405 52.896C236.965 52.128 237.677 51.544 238.541 51.144C239.421 50.728 240.317 50.52 241.229 50.52C241.997 50.52 242.685 50.68 243.293 51C243.917 51.32 244.229 51.76 244.229 52.32C244.229 52.624 244.109 52.888 243.869 53.112C243.645 53.32 243.325 53.424 242.909 53.424C242.525 53.424 242.221 53.328 241.997 53.136C241.773 52.928 241.589 52.616 241.445 52.2C241.301 51.752 241.157 51.448 241.013 51.288C240.885 51.112 240.645 51.024 240.293 51.024C239.605 51.024 239.053 51.368 238.637 52.056C238.237 52.728 238.037 53.624 238.037 54.744C238.037 56.072 238.333 57.136 238.925 57.936C239.517 58.72 240.461 59.112 241.757 59.112C242.189 59.112 242.557 59.064 242.861 58.968C243.181 58.872 243.581 58.712 244.061 58.488H244.085C244.133 58.488 244.173 58.512 244.205 58.56C244.253 58.608 244.261 58.648 244.229 58.68C243.637 59.224 243.045 59.632 242.453 59.904C241.861 60.16 241.181 60.288 240.413 60.288ZM254.164 58.416C254.196 58.416 254.228 58.448 254.26 58.512C254.308 58.576 254.316 58.624 254.284 58.656C253.692 59.232 253.092 59.648 252.484 59.904C251.876 60.16 251.212 60.288 250.492 60.288C249.484 60.288 248.612 60.08 247.876 59.664C247.14 59.232 246.58 58.664 246.196 57.96C245.812 57.24 245.62 56.472 245.62 55.656C245.62 54.728 245.86 53.872 246.34 53.088C246.82 52.288 247.476 51.664 248.308 51.216C249.14 50.752 250.068 50.52 251.092 50.52C252.084 50.52 252.844 50.736 253.372 51.168C253.9 51.584 254.164 52.16 254.164 52.896C254.164 53.36 254.076 53.592 253.9 53.592H252.436L248.116 53.64C248.068 53.944 248.044 54.28 248.044 54.648C248.044 56.024 248.364 57.112 249.004 57.912C249.66 58.712 250.556 59.112 251.692 59.112C252.092 59.112 252.508 59.056 252.94 58.944C253.372 58.832 253.764 58.664 254.116 58.44L254.164 58.416ZM250.204 51C249.724 51 249.308 51.192 248.956 51.576C248.604 51.96 248.348 52.488 248.188 53.16L251.596 53.088C251.548 51.696 251.084 51 250.204 51ZM256.347 45.24C256.315 45.128 256.483 45.048 256.851 45C257.219 44.936 257.611 44.904 258.027 44.904C258.443 44.904 258.835 44.936 259.203 45C259.587 45.048 259.763 45.128 259.731 45.24C259.379 46.456 259.115 47.784 258.939 49.224C258.779 50.664 258.611 52.488 258.435 54.696C258.435 54.856 258.419 55.112 258.387 55.464C258.387 55.496 258.339 55.528 258.243 55.56C258.163 55.576 258.075 55.584 257.979 55.584C257.883 55.584 257.787 55.576 257.691 55.56C257.611 55.528 257.571 55.496 257.571 55.464C257.427 53.096 257.275 51.136 257.115 49.584C256.955 48.016 256.699 46.568 256.347 45.24ZM257.883 60.264C257.435 60.264 257.075 60.136 256.803 59.88C256.547 59.608 256.419 59.248 256.419 58.8C256.419 58.384 256.547 58.048 256.803 57.792C257.075 57.536 257.435 57.408 257.883 57.408C258.331 57.408 258.675 57.536 258.915 57.792C259.171 58.032 259.299 58.368 259.299 58.8C259.299 59.264 259.171 59.624 258.915 59.88C258.675 60.136 258.331 60.264 257.883 60.264Z" fill="#F1F1F1"/>
</svg>
