<svg width="108" height="108" viewBox="0 0 108 108" fill="none" xmlns="http://www.w3.org/2000/svg">
<g filter="url(#filter0_bd)">
<g style="mix-blend-mode:overlay">
<circle cx="54" cy="50" r="50" fill="url(#paint0_linear)"/>
</g>
</g>
<path d="M30.112 46.232C31.0507 46.232 31.9147 46.456 32.704 46.904C33.5147 47.352 34.1547 48.024 34.624 48.92C35.1147 49.816 35.36 50.904 35.36 52.184C35.36 53.72 35.0293 55.032 34.368 56.12C33.728 57.208 32.8747 58.0293 31.808 58.584C30.7413 59.1387 29.6107 59.416 28.416 59.416C26.752 59.416 25.2587 58.9253 23.936 57.944L21.216 59.192H21.152C21.0667 59.192 21.0133 59.1493 20.992 59.064C20.9707 59 20.992 58.9467 21.056 58.904C21.632 58.5413 22.048 58.1253 22.304 57.656C22.5813 57.1653 22.72 56.5147 22.72 55.704V40.056C22.72 39.3093 22.6453 38.776 22.496 38.456C22.3467 38.1147 22.0907 37.944 21.728 37.944C21.472 37.944 21.056 38.072 20.48 38.328H20.448C20.3627 38.328 20.2987 38.2747 20.256 38.168C20.2133 38.0613 20.2133 37.9867 20.256 37.944L24.704 35.832L24.864 35.8C24.9493 35.8 25.0453 35.8427 25.152 35.928C25.2587 36.0133 25.312 36.088 25.312 36.152V48.6C26.016 47.8747 26.752 47.2987 27.52 46.872C28.288 46.4453 29.152 46.232 30.112 46.232ZM29.248 58.776C30.2933 58.776 31.0933 58.3067 31.648 57.368C32.2027 56.4293 32.48 55.096 32.48 53.368C32.48 51.4907 32.1387 50.0827 31.456 49.144C30.7947 48.184 29.8987 47.704 28.768 47.704C27.68 47.704 26.528 48.1947 25.312 49.176V54.072C25.312 55.1813 25.5147 56.088 25.92 56.792C26.3467 57.496 26.8587 58.008 27.456 58.328C28.0747 58.6267 28.672 58.776 29.248 58.776ZM48.5975 56.984C48.6402 56.984 48.6828 57.0267 48.7255 57.112C48.7895 57.1973 48.8002 57.2613 48.7575 57.304C47.9895 58.0293 47.2108 58.5627 46.4215 58.904C45.6322 59.224 44.7682 59.384 43.8295 59.384C42.5068 59.384 41.3655 59.1067 40.4055 58.552C39.4668 57.976 38.7415 57.2187 38.2295 56.28C37.7388 55.32 37.4935 54.296 37.4935 53.208C37.4935 51.9493 37.8028 50.7973 38.4215 49.752C39.0615 48.7067 39.9255 47.8853 41.0135 47.288C42.1228 46.6693 43.3388 46.36 44.6615 46.36C45.9202 46.36 46.8908 46.648 47.5735 47.224C48.2562 47.7787 48.5975 48.5467 48.5975 49.528C48.5975 50.104 48.4802 50.392 48.2455 50.392H46.4855L40.4695 50.456C40.4055 50.904 40.3735 51.384 40.3735 51.896C40.3735 53.752 40.8002 55.2347 41.6535 56.344C42.5282 57.432 43.7335 57.976 45.2695 57.976C45.8242 57.976 46.3895 57.9013 46.9655 57.752C47.5415 57.5813 48.0642 57.336 48.5335 57.016L48.5975 56.984ZM43.5095 47C42.8055 47 42.1975 47.256 41.6855 47.768C41.1735 48.28 40.8108 48.984 40.5975 49.88L45.5895 49.784C45.5468 48.9093 45.3548 48.2267 45.0135 47.736C44.6722 47.2453 44.1708 47 43.5095 47ZM57.5588 57.72C58.9028 57.9333 59.9481 58.1467 60.6948 58.36C61.4414 58.552 62.0921 58.904 62.6468 59.416C63.2228 59.928 63.5108 60.6533 63.5108 61.592C63.5108 62.68 63.1374 63.7147 62.3908 64.696C61.6654 65.6987 60.6841 66.4987 59.4468 67.096C58.2094 67.7147 56.8761 68.024 55.4468 68.024C53.8894 68.024 52.6201 67.672 51.6388 66.968C50.6574 66.2853 50.1668 65.3893 50.1668 64.28C50.1668 63.512 50.4228 62.7333 50.9348 61.944C51.4681 61.1547 52.3641 60.3227 53.6228 59.448C52.2361 59.0427 51.5428 58.2853 51.5428 57.176C51.5428 56.6213 51.7454 56.0667 52.1508 55.512C52.5774 54.936 53.1854 54.4133 53.9748 53.944C53.1001 53.624 52.4174 53.144 51.9268 52.504C51.4361 51.8427 51.1908 51.128 51.1908 50.36C51.1908 49.5493 51.4468 48.8453 51.9588 48.248C52.4921 47.6507 53.1641 47.2027 53.9748 46.904C54.7854 46.584 55.6281 46.424 56.5028 46.424C57.9108 46.424 59.0628 46.7653 59.9588 47.448C60.5348 47.0853 61.1001 46.8187 61.6548 46.648C62.2094 46.456 62.8068 46.36 63.4468 46.36C63.5961 46.36 63.6708 46.6373 63.6708 47.192C63.6708 47.4907 63.6281 47.8 63.5428 48.12C63.4788 48.44 63.4041 48.568 63.3188 48.504C62.4228 48.1627 61.6548 47.992 61.0148 47.992C60.8228 47.992 60.6734 48.0027 60.5668 48.024C61.1428 48.664 61.4308 49.4107 61.4308 50.264C61.4308 51.032 61.1748 51.7253 60.6628 52.344C60.1721 52.9413 59.5214 53.4107 58.7108 53.752C57.9001 54.0933 57.0361 54.264 56.1188 54.264C55.5214 54.264 54.9774 54.2 54.4868 54.072C53.9321 54.4987 53.6548 55.0107 53.6548 55.608C53.6548 56.2693 53.9748 56.7387 54.6148 57.016C55.2548 57.272 56.2361 57.5067 57.5588 57.72ZM55.5428 47C55.0308 47 54.6254 47.224 54.3268 47.672C54.0494 48.0987 53.9108 48.728 53.9108 49.56C53.9108 50.712 54.1988 51.6933 54.7748 52.504C55.3508 53.3147 56.0654 53.72 56.9188 53.72C57.4094 53.72 57.8254 53.496 58.1667 53.048C58.5081 52.6 58.6788 51.9067 58.6788 50.968C58.6788 49.8373 58.3694 48.8987 57.7508 48.152C57.1321 47.384 56.3961 47 55.5428 47ZM57.0148 67.032C58.2734 67.032 59.2761 66.68 60.0228 65.976C60.7908 65.272 61.1748 64.3653 61.1748 63.256C61.1748 62.4453 60.9294 61.816 60.4388 61.368C59.9694 60.92 59.3828 60.6 58.6788 60.408C57.9961 60.2373 57.0788 60.0773 55.9268 59.928C55.7561 59.9067 55.5001 59.864 55.1588 59.8C54.8388 59.7573 54.5614 59.704 54.3268 59.64C53.8788 60.0453 53.5268 60.4933 53.2708 60.984C53.0361 61.496 52.9188 62.136 52.9188 62.904C52.9188 64.2053 53.2921 65.2187 54.0388 65.944C54.7854 66.6693 55.7774 67.032 57.0148 67.032ZM65.3768 59C65.3128 59 65.2808 58.936 65.2808 58.808C65.2808 58.68 65.3128 58.616 65.3768 58.616C66.1021 58.616 66.5821 58.4667 66.8168 58.168C67.0514 57.8693 67.1688 57.2827 67.1688 56.408V50.584C67.1688 49.8587 67.0941 49.336 66.9448 49.016C66.7954 48.6747 66.5394 48.504 66.1768 48.504C65.8568 48.504 65.4408 48.632 64.9288 48.888H64.8968C64.8114 48.888 64.7474 48.8347 64.7048 48.728C64.6621 48.6213 64.6728 48.5467 64.7368 48.504L69.3448 46.36L69.4408 46.328C69.5261 46.328 69.6114 46.3813 69.6968 46.488C69.8034 46.5733 69.8568 46.648 69.8568 46.712V47.384C69.8141 48.28 69.7928 49.336 69.7928 50.552V56.408C69.7928 57.2827 69.9101 57.8693 70.1448 58.168C70.4008 58.4667 70.8914 58.616 71.6168 58.616C71.6808 58.616 71.7128 58.68 71.7128 58.808C71.7128 58.936 71.6808 59 71.6168 59C71.0834 59 70.6568 58.9893 70.3368 58.968L68.4808 58.936L66.6248 58.968C66.3261 58.9893 65.9101 59 65.3768 59ZM68.3208 42.968C67.7661 42.968 67.3288 42.8187 67.0088 42.52C66.7101 42.2213 66.5608 41.7947 66.5608 41.24C66.5608 40.7067 66.7101 40.3013 67.0088 40.024C67.3288 39.7253 67.7661 39.576 68.3208 39.576C68.8541 39.576 69.2701 39.7253 69.5688 40.024C69.8674 40.3013 70.0168 40.7067 70.0168 41.24C70.0168 41.7947 69.8674 42.2213 69.5688 42.52C69.2914 42.8187 68.8754 42.968 68.3208 42.968ZM88.5968 58.616C88.6608 58.616 88.6928 58.68 88.6928 58.808C88.6928 58.936 88.6608 59 88.5968 59C88.0634 59 87.6474 58.9893 87.3488 58.968L85.4928 58.936L83.6688 58.968C83.3488 58.9893 82.9221 59 82.3888 59C82.3248 59 82.2928 58.936 82.2928 58.808C82.2928 58.68 82.3248 58.616 82.3888 58.616C83.1141 58.616 83.5941 58.4667 83.8288 58.168C84.0634 57.8693 84.1808 57.2827 84.1808 56.408V51.608C84.1808 50.4133 83.9568 49.5387 83.5088 48.984C83.0821 48.408 82.3994 48.12 81.4608 48.12C80.9061 48.12 80.3408 48.248 79.7648 48.504C79.1888 48.76 78.6661 49.1013 78.1968 49.528V56.408C78.1968 57.2827 78.3141 57.8693 78.5488 58.168C78.7834 58.4667 79.2634 58.616 79.9888 58.616C80.0528 58.616 80.0848 58.68 80.0848 58.808C80.0848 58.936 80.0528 59 79.9888 59C79.4554 59 79.0394 58.9893 78.7408 58.968L76.8848 58.936L75.0288 58.968C74.7301 58.9893 74.3141 59 73.7808 59C73.7168 59 73.6848 58.936 73.6848 58.808C73.6848 58.68 73.7168 58.616 73.7808 58.616C74.5061 58.616 74.9861 58.4667 75.2208 58.168C75.4554 57.8693 75.5728 57.2827 75.5728 56.408V50.296C75.5728 49.6133 75.4874 49.112 75.3168 48.792C75.1674 48.472 74.9114 48.312 74.5488 48.312C74.2288 48.312 73.6954 48.472 72.9488 48.792H72.9168C72.8314 48.792 72.7674 48.7387 72.7248 48.632C72.6821 48.5253 72.6928 48.4613 72.7568 48.44L76.9488 46.392C77.0768 46.3493 77.1514 46.328 77.1727 46.328C77.3861 46.328 77.5994 46.5733 77.8128 47.064C78.0474 47.5333 78.1754 48.152 78.1968 48.92C79.6901 47.1493 81.3114 46.264 83.0608 46.264C84.2341 46.264 85.1514 46.6267 85.8128 47.352C86.4741 48.056 86.8048 49.016 86.8048 50.232V56.408C86.8048 57.2827 86.9221 57.8693 87.1568 58.168C87.3914 58.4667 87.8714 58.616 88.5968 58.616Z" fill="#F1F1F1"/>
<defs>
<filter id="filter0_bd" x="0" y="-4" width="108" height="112" filterUnits="userSpaceOnUse" color-interpolation-filters="sRGB">
<feFlood flood-opacity="0" result="BackgroundImageFix"/>
<feGaussianBlur in="BackgroundImage" stdDeviation="2"/>
<feComposite in2="SourceAlpha" operator="in" result="effect1_backgroundBlur"/>
<feColorMatrix in="SourceAlpha" type="matrix" values="0 0 0 0 0 0 0 0 0 0 0 0 0 0 0 0 0 0 127 0"/>
<feOffset dy="4"/>
<feGaussianBlur stdDeviation="2"/>
<feColorMatrix type="matrix" values="0 0 0 0 0 0 0 0 0 0 0 0 0 0 0 0 0 0 0.25 0"/>
<feBlend mode="normal" in2="effect1_backgroundBlur" result="effect2_dropShadow"/>
<feBlend mode="normal" in="SourceGraphic" in2="effect2_dropShadow" result="shape"/>
</filter>
<linearGradient id="paint0_linear" x1="70" y1="100" x2="27" y2="4.58181e-06" gradientUnits="userSpaceOnUse">
<stop stop-color="#F2F2F2"/>
<stop offset="1" stop-color="#F2F2F2" stop-opacity="0.3"/>
</linearGradient>
</defs>
</svg>
