<svg width="24" height="24" viewBox="0 0 24 24" fill="none" xmlns="http://www.w3.org/2000/svg">
<rect width="24" height="24" rx="8" fill="#DBD9F9"/>
<path d="M19.0648 8.49211C18.5628 8.70867 18.0165 8.86453 17.4538 8.92524C18.038 8.57814 18.4755 8.02978 18.6842 7.38305C18.136 7.70919 17.5354 7.93788 16.9091 8.05899C16.6473 7.77914 16.3307 7.5562 15.979 7.40406C15.6273 7.25192 15.248 7.17384 14.8648 7.17469C13.3145 7.17469 12.0676 8.43141 12.0676 9.9736C12.0676 10.1902 12.0938 10.4067 12.1365 10.6151C9.815 10.4937 7.74454 9.38461 6.36805 7.68656C6.11724 8.11496 5.98581 8.60273 5.98743 9.09914C5.98743 10.0704 6.48125 10.9268 7.2343 11.4305C6.79052 11.413 6.35713 11.291 5.96938 11.0745V11.1089C5.96938 12.469 6.93079 13.5961 8.21211 13.8553C7.97153 13.9178 7.72404 13.9498 7.47547 13.9505C7.29336 13.9505 7.1211 13.9324 6.94719 13.9078C7.30157 15.0169 8.33352 15.8224 9.56235 15.8487C8.60094 16.6017 7.39672 17.0447 6.08915 17.0447C5.85454 17.0447 5.63797 17.0365 5.41321 17.0102C6.65352 17.8059 8.12516 18.2653 9.71 18.2653C14.855 18.2653 17.6703 14.003 17.6703 10.3034C17.6703 10.182 17.6703 10.0605 17.6621 9.93914C18.2068 9.54047 18.6842 9.04664 19.0648 8.49211Z" fill="#080B3B"/>
</svg>
